<?xml version='1.0' encoding='ASCII' standalone='yes'?>
<svg xmlns="http://www.w3.org/2000/svg" xmlns:xlink="http://www.w3.org/1999/xlink" version="1.1" width="675.0px" viewBox="0 0 675.0 650.0" height="650.0px">
  <g>
    <rect width="100%" height="100%" fill="white"/>
    <g transform="translate(20, 10) scale(1 1) translate(0, 0) scale(0.9 0.9) "><metadata>
  <rdf:RDF xmlns:dc="http://purl.org/dc/elements/1.1/" xmlns:cc="http://creativecommons.org/ns#" xmlns:rdf="http://www.w3.org/1999/02/22-rdf-syntax-ns#">
   <cc:Work>
    <dc:type rdf:resource="http://purl.org/dc/dcmitype/StillImage"/>
    <dc:date>2023-09-29T15:17:15.533540</dc:date>
    <dc:format>image/svg+xml</dc:format>
    <dc:creator>
     <cc:Agent>
      <dc:title>Matplotlib v3.5.1, https://matplotlib.org/</dc:title>
     </cc:Agent>
    </dc:creator>
   </cc:Work>
  </rdf:RDF>
 </metadata>
 <defs>
  <style type="text/css">*{stroke-linejoin: round; stroke-linecap: butt}</style>
 </defs>
 <g id="figure_1">
  <g id="patch_1">
   <path d="M 0 679.260742  L 708.33939 679.260742  L 708.33939 0  L 0 0  z " style="fill: #ffffff"/>
  </g>
  <g id="axes_1">
   <g id="patch_2">
    <path d="M 53.530469 237.033333  L 624.01689 237.033333  L 624.01689 72.8  L 53.530469 72.8  z " style="fill: #ffffff"/>
   </g>
   <g id="matplotlib.axis_1">
    <g id="xtick_1">
     <g id="line2d_1">
      <path d="M 79.46167 237.033333  L 79.46167 72.8  " clip-path="url(#p12f75ada75)" style="fill: none; stroke: #cccccc; stroke-linecap: round"/>
     </g>
    </g>
    <g id="xtick_2">
     <g id="line2d_2">
      <path d="M 109.968965 237.033333  L 109.968965 72.8  " clip-path="url(#p12f75ada75)" style="fill: none; stroke: #cccccc; stroke-linecap: round"/>
     </g>
    </g>
    <g id="xtick_3">
     <g id="line2d_3">
      <path d="M 140.47626 237.033333  L 140.47626 72.8  " clip-path="url(#p12f75ada75)" style="fill: none; stroke: #cccccc; stroke-linecap: round"/>
     </g>
    </g>
    <g id="xtick_4">
     <g id="line2d_4">
      <path d="M 170.983556 237.033333  L 170.983556 72.8  " clip-path="url(#p12f75ada75)" style="fill: none; stroke: #cccccc; stroke-linecap: round"/>
     </g>
    </g>
    <g id="xtick_5">
     <g id="line2d_5">
      <path d="M 201.490851 237.033333  L 201.490851 72.8  " clip-path="url(#p12f75ada75)" style="fill: none; stroke: #cccccc; stroke-linecap: round"/>
     </g>
    </g>
    <g id="xtick_6">
     <g id="line2d_6">
      <path d="M 231.998146 237.033333  L 231.998146 72.8  " clip-path="url(#p12f75ada75)" style="fill: none; stroke: #cccccc; stroke-linecap: round"/>
     </g>
    </g>
    <g id="xtick_7">
     <g id="line2d_7">
      <path d="M 262.505441 237.033333  L 262.505441 72.8  " clip-path="url(#p12f75ada75)" style="fill: none; stroke: #cccccc; stroke-linecap: round"/>
     </g>
    </g>
    <g id="xtick_8">
     <g id="line2d_8">
      <path d="M 293.012737 237.033333  L 293.012737 72.8  " clip-path="url(#p12f75ada75)" style="fill: none; stroke: #cccccc; stroke-linecap: round"/>
     </g>
    </g>
    <g id="xtick_9">
     <g id="line2d_9">
      <path d="M 323.520032 237.033333  L 323.520032 72.8  " clip-path="url(#p12f75ada75)" style="fill: none; stroke: #cccccc; stroke-linecap: round"/>
     </g>
    </g>
    <g id="xtick_10">
     <g id="line2d_10">
      <path d="M 354.027327 237.033333  L 354.027327 72.8  " clip-path="url(#p12f75ada75)" style="fill: none; stroke: #cccccc; stroke-linecap: round"/>
     </g>
    </g>
    <g id="xtick_11">
     <g id="line2d_11">
      <path d="M 384.534623 237.033333  L 384.534623 72.8  " clip-path="url(#p12f75ada75)" style="fill: none; stroke: #cccccc; stroke-linecap: round"/>
     </g>
    </g>
    <g id="xtick_12">
     <g id="line2d_12">
      <path d="M 415.041918 237.033333  L 415.041918 72.8  " clip-path="url(#p12f75ada75)" style="fill: none; stroke: #cccccc; stroke-linecap: round"/>
     </g>
    </g>
    <g id="xtick_13">
     <g id="line2d_13">
      <path d="M 445.549213 237.033333  L 445.549213 72.8  " clip-path="url(#p12f75ada75)" style="fill: none; stroke: #cccccc; stroke-linecap: round"/>
     </g>
    </g>
    <g id="xtick_14">
     <g id="line2d_14">
      <path d="M 476.056508 237.033333  L 476.056508 72.8  " clip-path="url(#p12f75ada75)" style="fill: none; stroke: #cccccc; stroke-linecap: round"/>
     </g>
    </g>
    <g id="xtick_15">
     <g id="line2d_15">
      <path d="M 506.563804 237.033333  L 506.563804 72.8  " clip-path="url(#p12f75ada75)" style="fill: none; stroke: #cccccc; stroke-linecap: round"/>
     </g>
    </g>
    <g id="xtick_16">
     <g id="line2d_16">
      <path d="M 537.071099 237.033333  L 537.071099 72.8  " clip-path="url(#p12f75ada75)" style="fill: none; stroke: #cccccc; stroke-linecap: round"/>
     </g>
    </g>
    <g id="xtick_17">
     <g id="line2d_17">
      <path d="M 567.578394 237.033333  L 567.578394 72.8  " clip-path="url(#p12f75ada75)" style="fill: none; stroke: #cccccc; stroke-linecap: round"/>
     </g>
    </g>
    <g id="xtick_18">
     <g id="line2d_18">
      <path d="M 598.085689 237.033333  L 598.085689 72.8  " clip-path="url(#p12f75ada75)" style="fill: none; stroke: #cccccc; stroke-linecap: round"/>
     </g>
    </g>
   </g>
   <g id="matplotlib.axis_2">
    <g id="ytick_1">
     <g id="line2d_19">
      <path d="M 53.530469 229.332974  L 624.01689 229.332974  " clip-path="url(#p12f75ada75)" style="fill: none; stroke: #cccccc; stroke-linecap: round"/>
     </g>
     <g id="text_1">
      <!-- 0.2 -->
      <g style="fill: #262626" transform="translate(24.917969 234.25397)scale(0.1375 -0.1375)">
       <defs>
        <path id="ArialMT-30" d="M 266 2259  Q 266 3072 433 3567  Q 600 4063 929 4331  Q 1259 4600 1759 4600  Q 2128 4600 2406 4451  Q 2684 4303 2865 4023  Q 3047 3744 3150 3342  Q 3253 2941 3253 2259  Q 3253 1453 3087 958  Q 2922 463 2592 192  Q 2263 -78 1759 -78  Q 1097 -78 719 397  Q 266 969 266 2259  z M 844 2259  Q 844 1131 1108 757  Q 1372 384 1759 384  Q 2147 384 2411 759  Q 2675 1134 2675 2259  Q 2675 3391 2411 3762  Q 2147 4134 1753 4134  Q 1366 4134 1134 3806  Q 844 3388 844 2259  z " transform="scale(0.015625)"/>
        <path id="ArialMT-2e" d="M 581 0  L 581 641  L 1222 641  L 1222 0  L 581 0  z " transform="scale(0.015625)"/>
        <path id="ArialMT-32" d="M 3222 541  L 3222 0  L 194 0  Q 188 203 259 391  Q 375 700 629 1000  Q 884 1300 1366 1694  Q 2113 2306 2375 2664  Q 2638 3022 2638 3341  Q 2638 3675 2398 3904  Q 2159 4134 1775 4134  Q 1369 4134 1125 3890  Q 881 3647 878 3216  L 300 3275  Q 359 3922 746 4261  Q 1134 4600 1788 4600  Q 2447 4600 2831 4234  Q 3216 3869 3216 3328  Q 3216 3053 3103 2787  Q 2991 2522 2730 2228  Q 2469 1934 1863 1422  Q 1356 997 1212 845  Q 1069 694 975 541  L 3222 541  z " transform="scale(0.015625)"/>
       </defs>
       <use xlink:href="#ArialMT-30"/>
       <use xlink:href="#ArialMT-2e" x="55.615234"/>
       <use xlink:href="#ArialMT-32" x="83.398438"/>
      </g>
     </g>
    </g>
    <g id="ytick_2">
     <g id="line2d_20">
      <path d="M 53.530469 192.066018  L 624.01689 192.066018  " clip-path="url(#p12f75ada75)" style="fill: none; stroke: #cccccc; stroke-linecap: round"/>
     </g>
     <g id="text_2">
      <!-- 0.4 -->
      <g style="fill: #262626" transform="translate(24.917969 196.987014)scale(0.1375 -0.1375)">
       <defs>
        <path id="ArialMT-34" d="M 2069 0  L 2069 1097  L 81 1097  L 81 1613  L 2172 4581  L 2631 4581  L 2631 1613  L 3250 1613  L 3250 1097  L 2631 1097  L 2631 0  L 2069 0  z M 2069 1613  L 2069 3678  L 634 1613  L 2069 1613  z " transform="scale(0.015625)"/>
       </defs>
       <use xlink:href="#ArialMT-30"/>
       <use xlink:href="#ArialMT-2e" x="55.615234"/>
       <use xlink:href="#ArialMT-34" x="83.398438"/>
      </g>
     </g>
    </g>
    <g id="ytick_3">
     <g id="line2d_21">
      <path d="M 53.530469 154.799063  L 624.01689 154.799063  " clip-path="url(#p12f75ada75)" style="fill: none; stroke: #cccccc; stroke-linecap: round"/>
     </g>
     <g id="text_3">
      <!-- 0.6 -->
      <g style="fill: #262626" transform="translate(24.917969 159.720059)scale(0.1375 -0.1375)">
       <defs>
        <path id="ArialMT-36" d="M 3184 3459  L 2625 3416  Q 2550 3747 2413 3897  Q 2184 4138 1850 4138  Q 1581 4138 1378 3988  Q 1113 3794 959 3422  Q 806 3050 800 2363  Q 1003 2672 1297 2822  Q 1591 2972 1913 2972  Q 2475 2972 2870 2558  Q 3266 2144 3266 1488  Q 3266 1056 3080 686  Q 2894 316 2569 119  Q 2244 -78 1831 -78  Q 1128 -78 684 439  Q 241 956 241 2144  Q 241 3472 731 4075  Q 1159 4600 1884 4600  Q 2425 4600 2770 4297  Q 3116 3994 3184 3459  z M 888 1484  Q 888 1194 1011 928  Q 1134 663 1356 523  Q 1578 384 1822 384  Q 2178 384 2434 671  Q 2691 959 2691 1453  Q 2691 1928 2437 2201  Q 2184 2475 1800 2475  Q 1419 2475 1153 2201  Q 888 1928 888 1484  z " transform="scale(0.015625)"/>
       </defs>
       <use xlink:href="#ArialMT-30"/>
       <use xlink:href="#ArialMT-2e" x="55.615234"/>
       <use xlink:href="#ArialMT-36" x="83.398438"/>
      </g>
     </g>
    </g>
    <g id="ytick_4">
     <g id="line2d_22">
      <path d="M 53.530469 117.532107  L 624.01689 117.532107  " clip-path="url(#p12f75ada75)" style="fill: none; stroke: #cccccc; stroke-linecap: round"/>
     </g>
     <g id="text_4">
      <!-- 0.8 -->
      <g style="fill: #262626" transform="translate(24.917969 122.453103)scale(0.1375 -0.1375)">
       <defs>
        <path id="ArialMT-38" d="M 1131 2484  Q 781 2613 612 2850  Q 444 3088 444 3419  Q 444 3919 803 4259  Q 1163 4600 1759 4600  Q 2359 4600 2725 4251  Q 3091 3903 3091 3403  Q 3091 3084 2923 2848  Q 2756 2613 2416 2484  Q 2838 2347 3058 2040  Q 3278 1734 3278 1309  Q 3278 722 2862 322  Q 2447 -78 1769 -78  Q 1091 -78 675 323  Q 259 725 259 1325  Q 259 1772 486 2073  Q 713 2375 1131 2484  z M 1019 3438  Q 1019 3113 1228 2906  Q 1438 2700 1772 2700  Q 2097 2700 2305 2904  Q 2513 3109 2513 3406  Q 2513 3716 2298 3927  Q 2084 4138 1766 4138  Q 1444 4138 1231 3931  Q 1019 3725 1019 3438  z M 838 1322  Q 838 1081 952 856  Q 1066 631 1291 507  Q 1516 384 1775 384  Q 2178 384 2440 643  Q 2703 903 2703 1303  Q 2703 1709 2433 1975  Q 2163 2241 1756 2241  Q 1359 2241 1098 1978  Q 838 1716 838 1322  z " transform="scale(0.015625)"/>
       </defs>
       <use xlink:href="#ArialMT-30"/>
       <use xlink:href="#ArialMT-2e" x="55.615234"/>
       <use xlink:href="#ArialMT-38" x="83.398438"/>
      </g>
     </g>
    </g>
    <g id="ytick_5">
     <g id="line2d_23">
      <path d="M 53.530469 80.265152  L 624.01689 80.265152  " clip-path="url(#p12f75ada75)" style="fill: none; stroke: #cccccc; stroke-linecap: round"/>
     </g>
     <g id="text_5">
      <!-- 1.0 -->
      <g style="fill: #262626" transform="translate(24.917969 85.186148)scale(0.1375 -0.1375)">
       <defs>
        <path id="ArialMT-31" d="M 2384 0  L 1822 0  L 1822 3584  Q 1619 3391 1289 3197  Q 959 3003 697 2906  L 697 3450  Q 1169 3672 1522 3987  Q 1875 4303 2022 4600  L 2384 4600  L 2384 0  z " transform="scale(0.015625)"/>
       </defs>
       <use xlink:href="#ArialMT-31"/>
       <use xlink:href="#ArialMT-2e" x="55.615234"/>
       <use xlink:href="#ArialMT-30" x="83.398438"/>
      </g>
     </g>
    </g>
    <g id="text_6">
     <!-- AUPR -->
     <g style="fill: #262626" transform="translate(17.936719 175.754948)rotate(-90)scale(0.15 -0.15)">
      <defs>
       <path id="ArialMT-41" d="M -9 0  L 1750 4581  L 2403 4581  L 4278 0  L 3588 0  L 3053 1388  L 1138 1388  L 634 0  L -9 0  z M 1313 1881  L 2866 1881  L 2388 3150  Q 2169 3728 2063 4100  Q 1975 3659 1816 3225  L 1313 1881  z " transform="scale(0.015625)"/>
       <path id="ArialMT-55" d="M 3500 4581  L 4106 4581  L 4106 1934  Q 4106 1244 3950 837  Q 3794 431 3386 176  Q 2978 -78 2316 -78  Q 1672 -78 1262 144  Q 853 366 678 786  Q 503 1206 503 1934  L 503 4581  L 1109 4581  L 1109 1938  Q 1109 1341 1220 1058  Q 1331 775 1601 622  Q 1872 469 2263 469  Q 2931 469 3215 772  Q 3500 1075 3500 1938  L 3500 4581  z " transform="scale(0.015625)"/>
       <path id="ArialMT-50" d="M 494 0  L 494 4581  L 2222 4581  Q 2678 4581 2919 4538  Q 3256 4481 3484 4323  Q 3713 4166 3852 3881  Q 3991 3597 3991 3256  Q 3991 2672 3619 2267  Q 3247 1863 2275 1863  L 1100 1863  L 1100 0  L 494 0  z M 1100 2403  L 2284 2403  Q 2872 2403 3119 2622  Q 3366 2841 3366 3238  Q 3366 3525 3220 3729  Q 3075 3934 2838 4000  Q 2684 4041 2272 4041  L 1100 4041  L 1100 2403  z " transform="scale(0.015625)"/>
       <path id="ArialMT-52" d="M 503 0  L 503 4581  L 2534 4581  Q 3147 4581 3465 4457  Q 3784 4334 3975 4021  Q 4166 3709 4166 3331  Q 4166 2844 3850 2509  Q 3534 2175 2875 2084  Q 3116 1969 3241 1856  Q 3506 1613 3744 1247  L 4541 0  L 3778 0  L 3172 953  Q 2906 1366 2734 1584  Q 2563 1803 2427 1890  Q 2291 1978 2150 2013  Q 2047 2034 1813 2034  L 1109 2034  L 1109 0  L 503 0  z M 1109 2559  L 2413 2559  Q 2828 2559 3062 2645  Q 3297 2731 3419 2920  Q 3541 3109 3541 3331  Q 3541 3656 3305 3865  Q 3069 4075 2559 4075  L 1109 4075  L 1109 2559  z " transform="scale(0.015625)"/>
      </defs>
      <use xlink:href="#ArialMT-41"/>
      <use xlink:href="#ArialMT-55" x="66.699219"/>
      <use xlink:href="#ArialMT-50" x="138.916016"/>
      <use xlink:href="#ArialMT-52" x="205.615234"/>
     </g>
    </g>
   </g>
   <g id="PolyCollection_1">
    <defs>
     <path id="m75d4d6e191" d="M 79.46167 -504.10867  L 79.46167 -486.574924  L 109.968965 -566.110067  L 140.47626 -586.287904  L 170.983556 -597.479378  L 201.490851 -598.995032  L 231.998146 -598.995591  L 262.505441 -598.995591  L 293.012737 -598.995591  L 323.520032 -598.995591  L 354.027327 -598.995591  L 384.534623 -598.995591  L 415.041918 -598.995591  L 445.549213 -598.995591  L 476.056508 -598.995591  L 506.563804 -598.995591  L 537.071099 -598.995591  L 567.578394 -598.995591  L 598.085689 -598.995591  L 598.085689 -598.995591  L 598.085689 -598.995591  L 567.578394 -598.995591  L 537.071099 -598.995591  L 506.563804 -598.995591  L 476.056508 -598.995591  L 445.549213 -598.995591  L 415.041918 -598.995591  L 384.534623 -598.995591  L 354.027327 -598.995591  L 323.520032 -598.995591  L 293.012737 -598.995591  L 262.505441 -598.995591  L 231.998146 -598.995591  L 201.490851 -598.995591  L 170.983556 -598.643602  L 140.47626 -590.65877  L 109.968965 -572.939163  L 79.46167 -504.10867  z " style="stroke: #4c72b0; stroke-opacity: 0.2"/>
    </defs>
    <g clip-path="url(#p12f75ada75)">
     <use xlink:href="#m75d4d6e191" x="0" y="679.260742" style="fill: #4c72b0; fill-opacity: 0.2; stroke: #4c72b0; stroke-opacity: 0.2"/>
    </g>
   </g>
   <g id="PolyCollection_2">
    <defs>
     <path id="m1f4fa875e0" d="M 79.46167 -496.560425  L 79.46167 -480.407212  L 109.968965 -553.688961  L 140.47626 -557.161595  L 170.983556 -556.895029  L 201.490851 -553.581904  L 231.998146 -550.78981  L 262.505441 -548.717814  L 293.012737 -543.871073  L 323.520032 -541.826353  L 354.027327 -539.849969  L 384.534623 -533.22884  L 415.041918 -530.256006  L 445.549213 -527.612459  L 476.056508 -518.933802  L 506.563804 -509.42859  L 537.071099 -505.086946  L 567.578394 -505.242266  L 598.085689 -504.105377  L 598.085689 -510.052941  L 598.085689 -510.052941  L 567.578394 -511.863739  L 537.071099 -511.131057  L 506.563804 -517.197716  L 476.056508 -525.408614  L 445.549213 -533.505734  L 415.041918 -537.684119  L 384.534623 -539.733252  L 354.027327 -546.536546  L 323.520032 -549.364666  L 293.012737 -550.926364  L 262.505441 -554.732638  L 231.998146 -556.786918  L 201.490851 -558.774185  L 170.983556 -562.753332  L 140.47626 -563.375245  L 109.968965 -559.777842  L 79.46167 -496.560425  z " style="stroke: #dd8452; stroke-opacity: 0.2"/>
    </defs>
    <g clip-path="url(#p12f75ada75)">
     <use xlink:href="#m1f4fa875e0" x="0" y="679.260742" style="fill: #dd8452; fill-opacity: 0.2; stroke: #dd8452; stroke-opacity: 0.2"/>
    </g>
   </g>
   <g id="PolyCollection_3">
    <defs>
     <path id="m27f5f938ed" d="M 79.46167 -472.185484  L 79.46167 -452.848213  L 109.968965 -522.103174  L 140.47626 -517.589345  L 170.983556 -513.410707  L 201.490851 -508.663642  L 231.998146 -508.443226  L 262.505441 -504.189503  L 293.012737 -499.902189  L 323.520032 -496.424039  L 354.027327 -489.321598  L 384.534623 -486.800484  L 415.041918 -480.33043  L 445.549213 -479.364166  L 476.056508 -472.177462  L 506.563804 -462.905285  L 537.071099 -454.990948  L 567.578394 -455.830115  L 598.085689 -454.853453  L 598.085689 -460.307457  L 598.085689 -460.307457  L 567.578394 -459.908321  L 537.071099 -460.145368  L 506.563804 -467.520981  L 476.056508 -476.99433  L 445.549213 -484.93892  L 415.041918 -485.198147  L 384.534623 -491.546107  L 354.027327 -494.686202  L 323.520032 -500.536576  L 293.012737 -504.938573  L 262.505441 -508.723771  L 231.998146 -512.657837  L 201.490851 -512.826808  L 170.983556 -516.626197  L 140.47626 -520.34656  L 109.968965 -524.473431  L 79.46167 -472.185484  z " style="stroke: #55a868; stroke-opacity: 0.2"/>
    </defs>
    <g clip-path="url(#p12f75ada75)">
     <use xlink:href="#m27f5f938ed" x="0" y="679.260742" style="fill: #55a868; fill-opacity: 0.2; stroke: #55a868; stroke-opacity: 0.2"/>
    </g>
   </g>
   <g id="line2d_24">
    <path d="M 79.46167 184.066452  L 109.968965 109.610035  L 140.47626 90.813936  L 170.983556 81.173161  L 201.490851 80.265338  L 231.998146 80.265152  L 262.505441 80.265152  L 293.012737 80.265152  L 323.520032 80.265152  L 354.027327 80.265152  L 384.534623 80.265152  L 415.041918 80.265152  L 445.549213 80.265152  L 476.056508 80.265152  L 506.563804 80.265152  L 537.071099 80.265152  L 567.578394 80.265152  L 598.085689 80.265152  " clip-path="url(#p12f75ada75)" style="fill: none; stroke: #4c72b0; stroke-width: 1.5; stroke-linecap: round"/>
   </g>
   <g id="line2d_25">
    <path d="M 79.46167 190.792069  L 109.968965 122.534804  L 140.47626 118.953562  L 170.983556 119.491417  L 201.490851 123.147212  L 231.998146 125.511055  L 262.505441 127.657361  L 293.012737 131.964618  L 323.520032 133.723668  L 354.027327 136.221299  L 384.534623 143.025872  L 415.041918 145.547168  L 445.549213 148.763959  L 476.056508 157.323992  L 506.563804 166.077814  L 537.071099 171.446584  L 567.578394 170.948931  L 598.085689 172.555253  " clip-path="url(#p12f75ada75)" style="fill: none; stroke: #dd8452; stroke-width: 1.5; stroke-linecap: round"/>
   </g>
   <g id="line2d_26">
    <path d="M 79.46167 217.156454  L 109.968965 155.934136  L 140.47626 160.264262  L 170.983556 164.203099  L 201.490851 168.405042  L 231.998146 168.705786  L 262.505441 172.779748  L 293.012737 176.838446  L 323.520032 180.701274  L 354.027327 187.109793  L 384.534623 190.157764  L 415.041918 196.679574  L 445.549213 197.166374  L 476.056508 204.687498  L 506.563804 214.111938  L 537.071099 221.511665  L 567.578394 221.319957  L 598.085689 221.571199  " clip-path="url(#p12f75ada75)" style="fill: none; stroke: #55a868; stroke-width: 1.5; stroke-linecap: round"/>
   </g>
   <g id="line2d_27"/>
   <g id="line2d_28"/>
   <g id="line2d_29"/>
   <g id="patch_3">
    <path d="M 53.530469 237.033333  L 53.530469 72.8  " style="fill: none; stroke: #cccccc; stroke-width: 1.25; stroke-linejoin: miter; stroke-linecap: square"/>
   </g>
   <g id="patch_4">
    <path d="M 53.530469 237.033333  L 624.01689 237.033333  " style="fill: none; stroke: #cccccc; stroke-width: 1.25; stroke-linejoin: miter; stroke-linecap: square"/>
   </g>
   <g id="text_7">
    <!-- Norm: l0 -->
    <g style="fill: #262626" transform="translate(310.437742 66.8)scale(0.15 -0.15)">
     <defs>
      <path id="ArialMT-4e" d="M 488 0  L 488 4581  L 1109 4581  L 3516 984  L 3516 4581  L 4097 4581  L 4097 0  L 3475 0  L 1069 3600  L 1069 0  L 488 0  z " transform="scale(0.015625)"/>
      <path id="ArialMT-6f" d="M 213 1659  Q 213 2581 725 3025  Q 1153 3394 1769 3394  Q 2453 3394 2887 2945  Q 3322 2497 3322 1706  Q 3322 1066 3130 698  Q 2938 331 2570 128  Q 2203 -75 1769 -75  Q 1072 -75 642 372  Q 213 819 213 1659  z M 791 1659  Q 791 1022 1069 705  Q 1347 388 1769 388  Q 2188 388 2466 706  Q 2744 1025 2744 1678  Q 2744 2294 2464 2611  Q 2184 2928 1769 2928  Q 1347 2928 1069 2612  Q 791 2297 791 1659  z " transform="scale(0.015625)"/>
      <path id="ArialMT-72" d="M 416 0  L 416 3319  L 922 3319  L 922 2816  Q 1116 3169 1280 3281  Q 1444 3394 1641 3394  Q 1925 3394 2219 3213  L 2025 2691  Q 1819 2813 1613 2813  Q 1428 2813 1281 2702  Q 1134 2591 1072 2394  Q 978 2094 978 1738  L 978 0  L 416 0  z " transform="scale(0.015625)"/>
      <path id="ArialMT-6d" d="M 422 0  L 422 3319  L 925 3319  L 925 2853  Q 1081 3097 1340 3245  Q 1600 3394 1931 3394  Q 2300 3394 2536 3241  Q 2772 3088 2869 2813  Q 3263 3394 3894 3394  Q 4388 3394 4653 3120  Q 4919 2847 4919 2278  L 4919 0  L 4359 0  L 4359 2091  Q 4359 2428 4304 2576  Q 4250 2725 4106 2815  Q 3963 2906 3769 2906  Q 3419 2906 3187 2673  Q 2956 2441 2956 1928  L 2956 0  L 2394 0  L 2394 2156  Q 2394 2531 2256 2718  Q 2119 2906 1806 2906  Q 1569 2906 1367 2781  Q 1166 2656 1075 2415  Q 984 2175 984 1722  L 984 0  L 422 0  z " transform="scale(0.015625)"/>
      <path id="ArialMT-3a" d="M 578 2678  L 578 3319  L 1219 3319  L 1219 2678  L 578 2678  z M 578 0  L 578 641  L 1219 641  L 1219 0  L 578 0  z " transform="scale(0.015625)"/>
      <path id="ArialMT-20" transform="scale(0.015625)"/>
      <path id="ArialMT-6c" d="M 409 0  L 409 4581  L 972 4581  L 972 0  L 409 0  z " transform="scale(0.015625)"/>
     </defs>
     <use xlink:href="#ArialMT-4e"/>
     <use xlink:href="#ArialMT-6f" x="72.216797"/>
     <use xlink:href="#ArialMT-72" x="127.832031"/>
     <use xlink:href="#ArialMT-6d" x="161.132812"/>
     <use xlink:href="#ArialMT-3a" x="244.433594"/>
     <use xlink:href="#ArialMT-20" x="272.216797"/>
     <use xlink:href="#ArialMT-6c" x="300"/>
     <use xlink:href="#ArialMT-30" x="322.216797"/>
    </g>
   </g>
  </g>
  <g id="axes_2">
   <g id="patch_5">
    <path d="M 53.530469 434.466667  L 624.01689 434.466667  L 624.01689 270.233333  L 53.530469 270.233333  z " style="fill: #ffffff"/>
   </g>
   <g id="matplotlib.axis_3">
    <g id="xtick_19">
     <g id="line2d_30">
      <path d="M 79.46167 434.466667  L 79.46167 270.233333  " clip-path="url(#p2c1d040927)" style="fill: none; stroke: #cccccc; stroke-linecap: round"/>
     </g>
    </g>
    <g id="xtick_20">
     <g id="line2d_31">
      <path d="M 109.968965 434.466667  L 109.968965 270.233333  " clip-path="url(#p2c1d040927)" style="fill: none; stroke: #cccccc; stroke-linecap: round"/>
     </g>
    </g>
    <g id="xtick_21">
     <g id="line2d_32">
      <path d="M 140.47626 434.466667  L 140.47626 270.233333  " clip-path="url(#p2c1d040927)" style="fill: none; stroke: #cccccc; stroke-linecap: round"/>
     </g>
    </g>
    <g id="xtick_22">
     <g id="line2d_33">
      <path d="M 170.983556 434.466667  L 170.983556 270.233333  " clip-path="url(#p2c1d040927)" style="fill: none; stroke: #cccccc; stroke-linecap: round"/>
     </g>
    </g>
    <g id="xtick_23">
     <g id="line2d_34">
      <path d="M 201.490851 434.466667  L 201.490851 270.233333  " clip-path="url(#p2c1d040927)" style="fill: none; stroke: #cccccc; stroke-linecap: round"/>
     </g>
    </g>
    <g id="xtick_24">
     <g id="line2d_35">
      <path d="M 231.998146 434.466667  L 231.998146 270.233333  " clip-path="url(#p2c1d040927)" style="fill: none; stroke: #cccccc; stroke-linecap: round"/>
     </g>
    </g>
    <g id="xtick_25">
     <g id="line2d_36">
      <path d="M 262.505441 434.466667  L 262.505441 270.233333  " clip-path="url(#p2c1d040927)" style="fill: none; stroke: #cccccc; stroke-linecap: round"/>
     </g>
    </g>
    <g id="xtick_26">
     <g id="line2d_37">
      <path d="M 293.012737 434.466667  L 293.012737 270.233333  " clip-path="url(#p2c1d040927)" style="fill: none; stroke: #cccccc; stroke-linecap: round"/>
     </g>
    </g>
    <g id="xtick_27">
     <g id="line2d_38">
      <path d="M 323.520032 434.466667  L 323.520032 270.233333  " clip-path="url(#p2c1d040927)" style="fill: none; stroke: #cccccc; stroke-linecap: round"/>
     </g>
    </g>
    <g id="xtick_28">
     <g id="line2d_39">
      <path d="M 354.027327 434.466667  L 354.027327 270.233333  " clip-path="url(#p2c1d040927)" style="fill: none; stroke: #cccccc; stroke-linecap: round"/>
     </g>
    </g>
    <g id="xtick_29">
     <g id="line2d_40">
      <path d="M 384.534623 434.466667  L 384.534623 270.233333  " clip-path="url(#p2c1d040927)" style="fill: none; stroke: #cccccc; stroke-linecap: round"/>
     </g>
    </g>
    <g id="xtick_30">
     <g id="line2d_41">
      <path d="M 415.041918 434.466667  L 415.041918 270.233333  " clip-path="url(#p2c1d040927)" style="fill: none; stroke: #cccccc; stroke-linecap: round"/>
     </g>
    </g>
    <g id="xtick_31">
     <g id="line2d_42">
      <path d="M 445.549213 434.466667  L 445.549213 270.233333  " clip-path="url(#p2c1d040927)" style="fill: none; stroke: #cccccc; stroke-linecap: round"/>
     </g>
    </g>
    <g id="xtick_32">
     <g id="line2d_43">
      <path d="M 476.056508 434.466667  L 476.056508 270.233333  " clip-path="url(#p2c1d040927)" style="fill: none; stroke: #cccccc; stroke-linecap: round"/>
     </g>
    </g>
    <g id="xtick_33">
     <g id="line2d_44">
      <path d="M 506.563804 434.466667  L 506.563804 270.233333  " clip-path="url(#p2c1d040927)" style="fill: none; stroke: #cccccc; stroke-linecap: round"/>
     </g>
    </g>
    <g id="xtick_34">
     <g id="line2d_45">
      <path d="M 537.071099 434.466667  L 537.071099 270.233333  " clip-path="url(#p2c1d040927)" style="fill: none; stroke: #cccccc; stroke-linecap: round"/>
     </g>
    </g>
    <g id="xtick_35">
     <g id="line2d_46">
      <path d="M 567.578394 434.466667  L 567.578394 270.233333  " clip-path="url(#p2c1d040927)" style="fill: none; stroke: #cccccc; stroke-linecap: round"/>
     </g>
    </g>
    <g id="xtick_36">
     <g id="line2d_47">
      <path d="M 598.085689 434.466667  L 598.085689 270.233333  " clip-path="url(#p2c1d040927)" style="fill: none; stroke: #cccccc; stroke-linecap: round"/>
     </g>
    </g>
   </g>
   <g id="matplotlib.axis_4">
    <g id="ytick_6">
     <g id="line2d_48">
      <path d="M 53.530469 426.766307  L 624.01689 426.766307  " clip-path="url(#p2c1d040927)" style="fill: none; stroke: #cccccc; stroke-linecap: round"/>
     </g>
     <g id="text_8">
      <!-- 0.2 -->
      <g style="fill: #262626" transform="translate(24.917969 431.687303)scale(0.1375 -0.1375)">
       <use xlink:href="#ArialMT-30"/>
       <use xlink:href="#ArialMT-2e" x="55.615234"/>
       <use xlink:href="#ArialMT-32" x="83.398438"/>
      </g>
     </g>
    </g>
    <g id="ytick_7">
     <g id="line2d_49">
      <path d="M 53.530469 389.499352  L 624.01689 389.499352  " clip-path="url(#p2c1d040927)" style="fill: none; stroke: #cccccc; stroke-linecap: round"/>
     </g>
     <g id="text_9">
      <!-- 0.4 -->
      <g style="fill: #262626" transform="translate(24.917969 394.420348)scale(0.1375 -0.1375)">
       <use xlink:href="#ArialMT-30"/>
       <use xlink:href="#ArialMT-2e" x="55.615234"/>
       <use xlink:href="#ArialMT-34" x="83.398438"/>
      </g>
     </g>
    </g>
    <g id="ytick_8">
     <g id="line2d_50">
      <path d="M 53.530469 352.232396  L 624.01689 352.232396  " clip-path="url(#p2c1d040927)" style="fill: none; stroke: #cccccc; stroke-linecap: round"/>
     </g>
     <g id="text_10">
      <!-- 0.6 -->
      <g style="fill: #262626" transform="translate(24.917969 357.153392)scale(0.1375 -0.1375)">
       <use xlink:href="#ArialMT-30"/>
       <use xlink:href="#ArialMT-2e" x="55.615234"/>
       <use xlink:href="#ArialMT-36" x="83.398438"/>
      </g>
     </g>
    </g>
    <g id="ytick_9">
     <g id="line2d_51">
      <path d="M 53.530469 314.96544  L 624.01689 314.96544  " clip-path="url(#p2c1d040927)" style="fill: none; stroke: #cccccc; stroke-linecap: round"/>
     </g>
     <g id="text_11">
      <!-- 0.8 -->
      <g style="fill: #262626" transform="translate(24.917969 319.886437)scale(0.1375 -0.1375)">
       <use xlink:href="#ArialMT-30"/>
       <use xlink:href="#ArialMT-2e" x="55.615234"/>
       <use xlink:href="#ArialMT-38" x="83.398438"/>
      </g>
     </g>
    </g>
    <g id="ytick_10">
     <g id="line2d_52">
      <path d="M 53.530469 277.698485  L 624.01689 277.698485  " clip-path="url(#p2c1d040927)" style="fill: none; stroke: #cccccc; stroke-linecap: round"/>
     </g>
     <g id="text_12">
      <!-- 1.0 -->
      <g style="fill: #262626" transform="translate(24.917969 282.619481)scale(0.1375 -0.1375)">
       <use xlink:href="#ArialMT-31"/>
       <use xlink:href="#ArialMT-2e" x="55.615234"/>
       <use xlink:href="#ArialMT-30" x="83.398438"/>
      </g>
     </g>
    </g>
    <g id="text_13">
     <!-- AUPR -->
     <g style="fill: #262626" transform="translate(17.936719 373.188281)rotate(-90)scale(0.15 -0.15)">
      <use xlink:href="#ArialMT-41"/>
      <use xlink:href="#ArialMT-55" x="66.699219"/>
      <use xlink:href="#ArialMT-50" x="138.916016"/>
      <use xlink:href="#ArialMT-52" x="205.615234"/>
     </g>
    </g>
   </g>
   <g id="PolyCollection_4">
    <defs>
     <path id="mc327d78793" d="M 79.46167 -305.515494  L 79.46167 -286.992423  L 109.968965 -369.123098  L 140.47626 -388.970217  L 170.983556 -400.233867  L 201.490851 -401.561698  L 231.998146 -401.562257  L 262.505441 -401.562257  L 293.012737 -401.562257  L 323.520032 -401.562257  L 354.027327 -401.562257  L 384.534623 -401.562257  L 415.041918 -401.562257  L 445.549213 -401.562257  L 476.056508 -401.562257  L 506.563804 -401.562257  L 537.071099 -401.562257  L 567.578394 -401.562257  L 598.085689 -401.562257  L 598.085689 -401.562257  L 598.085689 -401.562257  L 567.578394 -401.562257  L 537.071099 -401.562257  L 506.563804 -401.562257  L 476.056508 -401.562257  L 445.549213 -401.562257  L 415.041918 -401.562257  L 384.534623 -401.562257  L 354.027327 -401.562257  L 323.520032 -401.562257  L 293.012737 -401.562257  L 262.505441 -401.562257  L 231.998146 -401.562257  L 201.490851 -401.562257  L 170.983556 -401.189532  L 140.47626 -393.245591  L 109.968965 -375.187035  L 79.46167 -305.515494  z " style="stroke: #4c72b0; stroke-opacity: 0.2"/>
    </defs>
    <g clip-path="url(#p2c1d040927)">
     <use xlink:href="#mc327d78793" x="0" y="679.260742" style="fill: #4c72b0; fill-opacity: 0.2; stroke: #4c72b0; stroke-opacity: 0.2"/>
    </g>
   </g>
   <g id="PolyCollection_5">
    <defs>
     <path id="m30a5420464" d="M 79.46167 -298.636078  L 79.46167 -281.962255  L 109.968965 -354.66668  L 140.47626 -359.652617  L 170.983556 -359.169111  L 201.490851 -355.19377  L 231.998146 -355.08922  L 262.505441 -350.760521  L 293.012737 -346.86963  L 323.520032 -344.958315  L 354.027327 -341.197031  L 384.534623 -336.745968  L 415.041918 -331.706595  L 445.549213 -329.672868  L 476.056508 -321.71583  L 506.563804 -311.995196  L 537.071099 -306.01733  L 567.578394 -307.038822  L 598.085689 -310.060597  L 598.085689 -318.487792  L 598.085689 -318.487792  L 567.578394 -312.136072  L 537.071099 -311.003937  L 506.563804 -318.507581  L 476.056508 -330.273595  L 445.549213 -336.346392  L 415.041918 -338.399524  L 384.534623 -343.083507  L 354.027327 -348.401837  L 323.520032 -352.01905  L 293.012737 -353.789982  L 262.505441 -356.887991  L 231.998146 -360.782425  L 201.490851 -360.917306  L 170.983556 -364.761644  L 140.47626 -366.324266  L 109.968965 -361.581357  L 79.46167 -298.636078  z " style="stroke: #dd8452; stroke-opacity: 0.2"/>
    </defs>
    <g clip-path="url(#p2c1d040927)">
     <use xlink:href="#m30a5420464" x="0" y="679.260742" style="fill: #dd8452; fill-opacity: 0.2; stroke: #dd8452; stroke-opacity: 0.2"/>
    </g>
   </g>
   <g id="PolyCollection_6">
    <defs>
     <path id="m268145a7e0" d="M 79.46167 -273.36031  L 79.46167 -254.102165  L 109.968965 -324.850642  L 140.47626 -320.102133  L 170.983556 -316.080745  L 201.490851 -311.492437  L 231.998146 -309.943494  L 262.505441 -307.051937  L 293.012737 -304.422202  L 323.520032 -298.00874  L 354.027327 -291.844916  L 384.534623 -288.058948  L 415.041918 -283.259416  L 445.549213 -281.504303  L 476.056508 -275.269166  L 506.563804 -266.019363  L 537.071099 -260.657801  L 567.578394 -259.17082  L 598.085689 -254.264054  L 598.085689 -258.544644  L 598.085689 -258.544644  L 567.578394 -262.981454  L 537.071099 -265.093892  L 506.563804 -270.033827  L 476.056508 -279.926268  L 445.549213 -287.800662  L 415.041918 -288.6879  L 384.534623 -293.508574  L 354.027327 -297.259404  L 323.520032 -302.029749  L 293.012737 -308.397983  L 262.505441 -312.082154  L 231.998146 -314.045797  L 201.490851 -315.815479  L 170.983556 -319.217029  L 140.47626 -322.792796  L 109.968965 -327.027652  L 79.46167 -273.36031  z " style="stroke: #55a868; stroke-opacity: 0.2"/>
    </defs>
    <g clip-path="url(#p2c1d040927)">
     <use xlink:href="#m268145a7e0" x="0" y="679.260742" style="fill: #55a868; fill-opacity: 0.2; stroke: #55a868; stroke-opacity: 0.2"/>
    </g>
   </g>
   <g id="line2d_53">
    <path d="M 79.46167 382.740648  L 109.968965 307.043604  L 140.47626 288.360374  L 170.983556 278.493389  L 201.490851 277.698671  L 231.998146 277.698485  L 262.505441 277.698485  L 293.012737 277.698485  L 323.520032 277.698485  L 354.027327 277.698485  L 384.534623 277.698485  L 415.041918 277.698485  L 445.549213 277.698485  L 476.056508 277.698485  L 506.563804 277.698485  L 537.071099 277.698485  L 567.578394 277.698485  L 598.085689 277.698485  " clip-path="url(#p2c1d040927)" style="fill: none; stroke: #4c72b0; stroke-width: 1.5; stroke-linecap: round"/>
   </g>
   <g id="line2d_54">
    <path d="M 79.46167 389.019446  L 109.968965 320.998867  L 140.47626 316.001462  L 170.983556 317.285029  L 201.490851 321.389611  L 231.998146 321.534859  L 262.505441 325.711367  L 293.012737 329.014896  L 323.520032 330.962188  L 354.027327 334.681989  L 384.534623 339.467905  L 415.041918 344.384068  L 445.549213 346.349993  L 476.056508 353.532454  L 506.563804 364.272045  L 537.071099 371.303015  L 567.578394 369.773766  L 598.085689 365.091825  " clip-path="url(#p2c1d040927)" style="fill: none; stroke: #dd8452; stroke-width: 1.5; stroke-linecap: round"/>
   </g>
   <g id="line2d_55">
    <path d="M 79.46167 415.617121  L 109.968965 353.346585  L 140.47626 357.805483  L 170.983556 361.515688  L 201.490851 365.532507  L 231.998146 367.238122  L 262.505441 369.703238  L 293.012737 372.804128  L 323.520032 379.146778  L 354.027327 384.539399  L 384.534623 388.572336  L 415.041918 393.434369  L 445.549213 394.66744  L 476.056508 401.736236  L 506.563804 411.192633  L 537.071099 416.192181  L 567.578394 417.999069  L 598.085689 422.81396  " clip-path="url(#p2c1d040927)" style="fill: none; stroke: #55a868; stroke-width: 1.5; stroke-linecap: round"/>
   </g>
   <g id="patch_6">
    <path d="M 53.530469 434.466667  L 53.530469 270.233333  " style="fill: none; stroke: #cccccc; stroke-width: 1.25; stroke-linejoin: miter; stroke-linecap: square"/>
   </g>
   <g id="patch_7">
    <path d="M 53.530469 434.466667  L 624.01689 434.466667  " style="fill: none; stroke: #cccccc; stroke-width: 1.25; stroke-linejoin: miter; stroke-linecap: square"/>
   </g>
   <g id="text_14">
    <!-- Norm: l1 -->
    <g style="fill: #262626" transform="translate(310.437742 264.233333)scale(0.15 -0.15)">
     <use xlink:href="#ArialMT-4e"/>
     <use xlink:href="#ArialMT-6f" x="72.216797"/>
     <use xlink:href="#ArialMT-72" x="127.832031"/>
     <use xlink:href="#ArialMT-6d" x="161.132812"/>
     <use xlink:href="#ArialMT-3a" x="244.433594"/>
     <use xlink:href="#ArialMT-20" x="272.216797"/>
     <use xlink:href="#ArialMT-6c" x="300"/>
     <use xlink:href="#ArialMT-31" x="322.216797"/>
    </g>
   </g>
  </g>
  <g id="axes_3">
   <g id="patch_8">
    <path d="M 53.530469 631.9  L 624.01689 631.9  L 624.01689 467.666667  L 53.530469 467.666667  z " style="fill: #ffffff"/>
   </g>
   <g id="matplotlib.axis_5">
    <g id="xtick_37">
     <g id="line2d_56">
      <path d="M 79.46167 631.9  L 79.46167 467.666667  " clip-path="url(#p9693054b8d)" style="fill: none; stroke: #cccccc; stroke-linecap: round"/>
     </g>
     <g id="text_15">
      <!-- 1 -->
      <g style="fill: #262626" transform="translate(75.638525 651.241992)scale(0.1375 -0.1375)">
       <use xlink:href="#ArialMT-31"/>
      </g>
     </g>
    </g>
    <g id="xtick_38">
     <g id="line2d_57">
      <path d="M 109.968965 631.9  L 109.968965 467.666667  " clip-path="url(#p9693054b8d)" style="fill: none; stroke: #cccccc; stroke-linecap: round"/>
     </g>
     <g id="text_16">
      <!-- 2 -->
      <g style="fill: #262626" transform="translate(106.14582 651.241992)scale(0.1375 -0.1375)">
       <use xlink:href="#ArialMT-32"/>
      </g>
     </g>
    </g>
    <g id="xtick_39">
     <g id="line2d_58">
      <path d="M 140.47626 631.9  L 140.47626 467.666667  " clip-path="url(#p9693054b8d)" style="fill: none; stroke: #cccccc; stroke-linecap: round"/>
     </g>
     <g id="text_17">
      <!-- 3 -->
      <g style="fill: #262626" transform="translate(136.653116 651.241992)scale(0.1375 -0.1375)">
       <defs>
        <path id="ArialMT-33" d="M 269 1209  L 831 1284  Q 928 806 1161 595  Q 1394 384 1728 384  Q 2125 384 2398 659  Q 2672 934 2672 1341  Q 2672 1728 2419 1979  Q 2166 2231 1775 2231  Q 1616 2231 1378 2169  L 1441 2663  Q 1497 2656 1531 2656  Q 1891 2656 2178 2843  Q 2466 3031 2466 3422  Q 2466 3731 2256 3934  Q 2047 4138 1716 4138  Q 1388 4138 1169 3931  Q 950 3725 888 3313  L 325 3413  Q 428 3978 793 4289  Q 1159 4600 1703 4600  Q 2078 4600 2393 4439  Q 2709 4278 2876 4000  Q 3044 3722 3044 3409  Q 3044 3113 2884 2869  Q 2725 2625 2413 2481  Q 2819 2388 3044 2092  Q 3269 1797 3269 1353  Q 3269 753 2831 336  Q 2394 -81 1725 -81  Q 1122 -81 723 278  Q 325 638 269 1209  z " transform="scale(0.015625)"/>
       </defs>
       <use xlink:href="#ArialMT-33"/>
      </g>
     </g>
    </g>
    <g id="xtick_40">
     <g id="line2d_59">
      <path d="M 170.983556 631.9  L 170.983556 467.666667  " clip-path="url(#p9693054b8d)" style="fill: none; stroke: #cccccc; stroke-linecap: round"/>
     </g>
     <g id="text_18">
      <!-- 4 -->
      <g style="fill: #262626" transform="translate(167.160411 651.241992)scale(0.1375 -0.1375)">
       <use xlink:href="#ArialMT-34"/>
      </g>
     </g>
    </g>
    <g id="xtick_41">
     <g id="line2d_60">
      <path d="M 201.490851 631.9  L 201.490851 467.666667  " clip-path="url(#p9693054b8d)" style="fill: none; stroke: #cccccc; stroke-linecap: round"/>
     </g>
     <g id="text_19">
      <!-- 5 -->
      <g style="fill: #262626" transform="translate(197.667706 651.241992)scale(0.1375 -0.1375)">
       <defs>
        <path id="ArialMT-35" d="M 266 1200  L 856 1250  Q 922 819 1161 601  Q 1400 384 1738 384  Q 2144 384 2425 690  Q 2706 997 2706 1503  Q 2706 1984 2436 2262  Q 2166 2541 1728 2541  Q 1456 2541 1237 2417  Q 1019 2294 894 2097  L 366 2166  L 809 4519  L 3088 4519  L 3088 3981  L 1259 3981  L 1013 2750  Q 1425 3038 1878 3038  Q 2478 3038 2890 2622  Q 3303 2206 3303 1553  Q 3303 931 2941 478  Q 2500 -78 1738 -78  Q 1113 -78 717 272  Q 322 622 266 1200  z " transform="scale(0.015625)"/>
       </defs>
       <use xlink:href="#ArialMT-35"/>
      </g>
     </g>
    </g>
    <g id="xtick_42">
     <g id="line2d_61">
      <path d="M 231.998146 631.9  L 231.998146 467.666667  " clip-path="url(#p9693054b8d)" style="fill: none; stroke: #cccccc; stroke-linecap: round"/>
     </g>
     <g id="text_20">
      <!-- 6 -->
      <g style="fill: #262626" transform="translate(228.175002 651.241992)scale(0.1375 -0.1375)">
       <use xlink:href="#ArialMT-36"/>
      </g>
     </g>
    </g>
    <g id="xtick_43">
     <g id="line2d_62">
      <path d="M 262.505441 631.9  L 262.505441 467.666667  " clip-path="url(#p9693054b8d)" style="fill: none; stroke: #cccccc; stroke-linecap: round"/>
     </g>
     <g id="text_21">
      <!-- 7 -->
      <g style="fill: #262626" transform="translate(258.682297 651.241992)scale(0.1375 -0.1375)">
       <defs>
        <path id="ArialMT-37" d="M 303 3981  L 303 4522  L 3269 4522  L 3269 4084  Q 2831 3619 2401 2847  Q 1972 2075 1738 1259  Q 1569 684 1522 0  L 944 0  Q 953 541 1156 1306  Q 1359 2072 1739 2783  Q 2119 3494 2547 3981  L 303 3981  z " transform="scale(0.015625)"/>
       </defs>
       <use xlink:href="#ArialMT-37"/>
      </g>
     </g>
    </g>
    <g id="xtick_44">
     <g id="line2d_63">
      <path d="M 293.012737 631.9  L 293.012737 467.666667  " clip-path="url(#p9693054b8d)" style="fill: none; stroke: #cccccc; stroke-linecap: round"/>
     </g>
     <g id="text_22">
      <!-- 8 -->
      <g style="fill: #262626" transform="translate(289.189592 651.241992)scale(0.1375 -0.1375)">
       <use xlink:href="#ArialMT-38"/>
      </g>
     </g>
    </g>
    <g id="xtick_45">
     <g id="line2d_64">
      <path d="M 323.520032 631.9  L 323.520032 467.666667  " clip-path="url(#p9693054b8d)" style="fill: none; stroke: #cccccc; stroke-linecap: round"/>
     </g>
     <g id="text_23">
      <!-- 9 -->
      <g style="fill: #262626" transform="translate(319.696887 651.241992)scale(0.1375 -0.1375)">
       <defs>
        <path id="ArialMT-39" d="M 350 1059  L 891 1109  Q 959 728 1153 556  Q 1347 384 1650 384  Q 1909 384 2104 503  Q 2300 622 2425 820  Q 2550 1019 2634 1356  Q 2719 1694 2719 2044  Q 2719 2081 2716 2156  Q 2547 1888 2255 1720  Q 1963 1553 1622 1553  Q 1053 1553 659 1965  Q 266 2378 266 3053  Q 266 3750 677 4175  Q 1088 4600 1706 4600  Q 2153 4600 2523 4359  Q 2894 4119 3086 3673  Q 3278 3228 3278 2384  Q 3278 1506 3087 986  Q 2897 466 2520 194  Q 2144 -78 1638 -78  Q 1100 -78 759 220  Q 419 519 350 1059  z M 2653 3081  Q 2653 3566 2395 3850  Q 2138 4134 1775 4134  Q 1400 4134 1122 3828  Q 844 3522 844 3034  Q 844 2597 1108 2323  Q 1372 2050 1759 2050  Q 2150 2050 2401 2323  Q 2653 2597 2653 3081  z " transform="scale(0.015625)"/>
       </defs>
       <use xlink:href="#ArialMT-39"/>
      </g>
     </g>
    </g>
    <g id="xtick_46">
     <g id="line2d_65">
      <path d="M 354.027327 631.9  L 354.027327 467.666667  " clip-path="url(#p9693054b8d)" style="fill: none; stroke: #cccccc; stroke-linecap: round"/>
     </g>
     <g id="text_24">
      <!-- 10 -->
      <g style="fill: #262626" transform="translate(346.381038 651.241992)scale(0.1375 -0.1375)">
       <use xlink:href="#ArialMT-31"/>
       <use xlink:href="#ArialMT-30" x="55.615234"/>
      </g>
     </g>
    </g>
    <g id="xtick_47">
     <g id="line2d_66">
      <path d="M 384.534623 631.9  L 384.534623 467.666667  " clip-path="url(#p9693054b8d)" style="fill: none; stroke: #cccccc; stroke-linecap: round"/>
     </g>
     <g id="text_25">
      <!-- 11 -->
      <g style="fill: #262626" transform="translate(377.395365 651.241992)scale(0.1375 -0.1375)">
       <use xlink:href="#ArialMT-31"/>
       <use xlink:href="#ArialMT-31" x="48.240234"/>
      </g>
     </g>
    </g>
    <g id="xtick_48">
     <g id="line2d_67">
      <path d="M 415.041918 631.9  L 415.041918 467.666667  " clip-path="url(#p9693054b8d)" style="fill: none; stroke: #cccccc; stroke-linecap: round"/>
     </g>
     <g id="text_26">
      <!-- 12 -->
      <g style="fill: #262626" transform="translate(407.395629 651.241992)scale(0.1375 -0.1375)">
       <use xlink:href="#ArialMT-31"/>
       <use xlink:href="#ArialMT-32" x="55.615234"/>
      </g>
     </g>
    </g>
    <g id="xtick_49">
     <g id="line2d_68">
      <path d="M 445.549213 631.9  L 445.549213 467.666667  " clip-path="url(#p9693054b8d)" style="fill: none; stroke: #cccccc; stroke-linecap: round"/>
     </g>
     <g id="text_27">
      <!-- 13 -->
      <g style="fill: #262626" transform="translate(437.902924 651.241992)scale(0.1375 -0.1375)">
       <use xlink:href="#ArialMT-31"/>
       <use xlink:href="#ArialMT-33" x="55.615234"/>
      </g>
     </g>
    </g>
    <g id="xtick_50">
     <g id="line2d_69">
      <path d="M 476.056508 631.9  L 476.056508 467.666667  " clip-path="url(#p9693054b8d)" style="fill: none; stroke: #cccccc; stroke-linecap: round"/>
     </g>
     <g id="text_28">
      <!-- 14 -->
      <g style="fill: #262626" transform="translate(468.410219 651.241992)scale(0.1375 -0.1375)">
       <use xlink:href="#ArialMT-31"/>
       <use xlink:href="#ArialMT-34" x="55.615234"/>
      </g>
     </g>
    </g>
    <g id="xtick_51">
     <g id="line2d_70">
      <path d="M 506.563804 631.9  L 506.563804 467.666667  " clip-path="url(#p9693054b8d)" style="fill: none; stroke: #cccccc; stroke-linecap: round"/>
     </g>
     <g id="text_29">
      <!-- 15 -->
      <g style="fill: #262626" transform="translate(498.917515 651.241992)scale(0.1375 -0.1375)">
       <use xlink:href="#ArialMT-31"/>
       <use xlink:href="#ArialMT-35" x="55.615234"/>
      </g>
     </g>
    </g>
    <g id="xtick_52">
     <g id="line2d_71">
      <path d="M 537.071099 631.9  L 537.071099 467.666667  " clip-path="url(#p9693054b8d)" style="fill: none; stroke: #cccccc; stroke-linecap: round"/>
     </g>
     <g id="text_30">
      <!-- 16 -->
      <g style="fill: #262626" transform="translate(529.42481 651.241992)scale(0.1375 -0.1375)">
       <use xlink:href="#ArialMT-31"/>
       <use xlink:href="#ArialMT-36" x="55.615234"/>
      </g>
     </g>
    </g>
    <g id="xtick_53">
     <g id="line2d_72">
      <path d="M 567.578394 631.9  L 567.578394 467.666667  " clip-path="url(#p9693054b8d)" style="fill: none; stroke: #cccccc; stroke-linecap: round"/>
     </g>
     <g id="text_31">
      <!-- 17 -->
      <g style="fill: #262626" transform="translate(559.932105 651.241992)scale(0.1375 -0.1375)">
       <use xlink:href="#ArialMT-31"/>
       <use xlink:href="#ArialMT-37" x="55.615234"/>
      </g>
     </g>
    </g>
    <g id="xtick_54">
     <g id="line2d_73">
      <path d="M 598.085689 631.9  L 598.085689 467.666667  " clip-path="url(#p9693054b8d)" style="fill: none; stroke: #cccccc; stroke-linecap: round"/>
     </g>
     <g id="text_32">
      <!-- 18 -->
      <g style="fill: #262626" transform="translate(590.4394 651.241992)scale(0.1375 -0.1375)">
       <use xlink:href="#ArialMT-31"/>
       <use xlink:href="#ArialMT-38" x="55.615234"/>
      </g>
     </g>
    </g>
    <g id="text_33">
     <!-- Quantile (increasing value of norm) -->
     <g style="fill: #262626" transform="translate(222.059617 668.903711)scale(0.15 -0.15)">
      <defs>
       <path id="ArialMT-51" d="M 3966 491  Q 4388 200 4744 66  L 4566 -356  Q 4072 -178 3581 206  Q 3072 -78 2456 -78  Q 1834 -78 1328 222  Q 822 522 548 1065  Q 275 1609 275 2291  Q 275 2969 550 3525  Q 825 4081 1333 4372  Q 1841 4663 2469 4663  Q 3103 4663 3612 4361  Q 4122 4059 4389 3517  Q 4656 2975 4656 2294  Q 4656 1728 4484 1276  Q 4313 825 3966 491  z M 2631 1266  Q 3156 1119 3497 828  Q 4031 1316 4031 2294  Q 4031 2850 3842 3265  Q 3653 3681 3289 3911  Q 2925 4141 2472 4141  Q 1794 4141 1347 3677  Q 900 3213 900 2291  Q 900 1397 1342 919  Q 1784 441 2472 441  Q 2797 441 3084 563  Q 2800 747 2484 825  L 2631 1266  z " transform="scale(0.015625)"/>
       <path id="ArialMT-75" d="M 2597 0  L 2597 488  Q 2209 -75 1544 -75  Q 1250 -75 995 37  Q 741 150 617 320  Q 494 491 444 738  Q 409 903 409 1263  L 409 3319  L 972 3319  L 972 1478  Q 972 1038 1006 884  Q 1059 663 1231 536  Q 1403 409 1656 409  Q 1909 409 2131 539  Q 2353 669 2445 892  Q 2538 1116 2538 1541  L 2538 3319  L 3100 3319  L 3100 0  L 2597 0  z " transform="scale(0.015625)"/>
       <path id="ArialMT-61" d="M 2588 409  Q 2275 144 1986 34  Q 1697 -75 1366 -75  Q 819 -75 525 192  Q 231 459 231 875  Q 231 1119 342 1320  Q 453 1522 633 1644  Q 813 1766 1038 1828  Q 1203 1872 1538 1913  Q 2219 1994 2541 2106  Q 2544 2222 2544 2253  Q 2544 2597 2384 2738  Q 2169 2928 1744 2928  Q 1347 2928 1158 2789  Q 969 2650 878 2297  L 328 2372  Q 403 2725 575 2942  Q 747 3159 1072 3276  Q 1397 3394 1825 3394  Q 2250 3394 2515 3294  Q 2781 3194 2906 3042  Q 3031 2891 3081 2659  Q 3109 2516 3109 2141  L 3109 1391  Q 3109 606 3145 398  Q 3181 191 3288 0  L 2700 0  Q 2613 175 2588 409  z M 2541 1666  Q 2234 1541 1622 1453  Q 1275 1403 1131 1340  Q 988 1278 909 1158  Q 831 1038 831 891  Q 831 666 1001 516  Q 1172 366 1500 366  Q 1825 366 2078 508  Q 2331 650 2450 897  Q 2541 1088 2541 1459  L 2541 1666  z " transform="scale(0.015625)"/>
       <path id="ArialMT-6e" d="M 422 0  L 422 3319  L 928 3319  L 928 2847  Q 1294 3394 1984 3394  Q 2284 3394 2536 3286  Q 2788 3178 2913 3003  Q 3038 2828 3088 2588  Q 3119 2431 3119 2041  L 3119 0  L 2556 0  L 2556 2019  Q 2556 2363 2490 2533  Q 2425 2703 2258 2804  Q 2091 2906 1866 2906  Q 1506 2906 1245 2678  Q 984 2450 984 1813  L 984 0  L 422 0  z " transform="scale(0.015625)"/>
       <path id="ArialMT-74" d="M 1650 503  L 1731 6  Q 1494 -44 1306 -44  Q 1000 -44 831 53  Q 663 150 594 308  Q 525 466 525 972  L 525 2881  L 113 2881  L 113 3319  L 525 3319  L 525 4141  L 1084 4478  L 1084 3319  L 1650 3319  L 1650 2881  L 1084 2881  L 1084 941  Q 1084 700 1114 631  Q 1144 563 1211 522  Q 1278 481 1403 481  Q 1497 481 1650 503  z " transform="scale(0.015625)"/>
       <path id="ArialMT-69" d="M 425 3934  L 425 4581  L 988 4581  L 988 3934  L 425 3934  z M 425 0  L 425 3319  L 988 3319  L 988 0  L 425 0  z " transform="scale(0.015625)"/>
       <path id="ArialMT-65" d="M 2694 1069  L 3275 997  Q 3138 488 2766 206  Q 2394 -75 1816 -75  Q 1088 -75 661 373  Q 234 822 234 1631  Q 234 2469 665 2931  Q 1097 3394 1784 3394  Q 2450 3394 2872 2941  Q 3294 2488 3294 1666  Q 3294 1616 3291 1516  L 816 1516  Q 847 969 1125 678  Q 1403 388 1819 388  Q 2128 388 2347 550  Q 2566 713 2694 1069  z M 847 1978  L 2700 1978  Q 2663 2397 2488 2606  Q 2219 2931 1791 2931  Q 1403 2931 1139 2672  Q 875 2413 847 1978  z " transform="scale(0.015625)"/>
       <path id="ArialMT-28" d="M 1497 -1347  Q 1031 -759 709 28  Q 388 816 388 1659  Q 388 2403 628 3084  Q 909 3875 1497 4659  L 1900 4659  Q 1522 4009 1400 3731  Q 1209 3300 1100 2831  Q 966 2247 966 1656  Q 966 153 1900 -1347  L 1497 -1347  z " transform="scale(0.015625)"/>
       <path id="ArialMT-63" d="M 2588 1216  L 3141 1144  Q 3050 572 2676 248  Q 2303 -75 1759 -75  Q 1078 -75 664 370  Q 250 816 250 1647  Q 250 2184 428 2587  Q 606 2991 970 3192  Q 1334 3394 1763 3394  Q 2303 3394 2647 3120  Q 2991 2847 3088 2344  L 2541 2259  Q 2463 2594 2264 2762  Q 2066 2931 1784 2931  Q 1359 2931 1093 2626  Q 828 2322 828 1663  Q 828 994 1084 691  Q 1341 388 1753 388  Q 2084 388 2306 591  Q 2528 794 2588 1216  z " transform="scale(0.015625)"/>
       <path id="ArialMT-73" d="M 197 991  L 753 1078  Q 800 744 1014 566  Q 1228 388 1613 388  Q 2000 388 2187 545  Q 2375 703 2375 916  Q 2375 1106 2209 1216  Q 2094 1291 1634 1406  Q 1016 1563 777 1677  Q 538 1791 414 1992  Q 291 2194 291 2438  Q 291 2659 392 2848  Q 494 3038 669 3163  Q 800 3259 1026 3326  Q 1253 3394 1513 3394  Q 1903 3394 2198 3281  Q 2494 3169 2634 2976  Q 2775 2784 2828 2463  L 2278 2388  Q 2241 2644 2061 2787  Q 1881 2931 1553 2931  Q 1166 2931 1000 2803  Q 834 2675 834 2503  Q 834 2394 903 2306  Q 972 2216 1119 2156  Q 1203 2125 1616 2013  Q 2213 1853 2448 1751  Q 2684 1650 2818 1456  Q 2953 1263 2953 975  Q 2953 694 2789 445  Q 2625 197 2315 61  Q 2006 -75 1616 -75  Q 969 -75 630 194  Q 291 463 197 991  z " transform="scale(0.015625)"/>
       <path id="ArialMT-67" d="M 319 -275  L 866 -356  Q 900 -609 1056 -725  Q 1266 -881 1628 -881  Q 2019 -881 2231 -725  Q 2444 -569 2519 -288  Q 2563 -116 2559 434  Q 2191 0 1641 0  Q 956 0 581 494  Q 206 988 206 1678  Q 206 2153 378 2554  Q 550 2956 876 3175  Q 1203 3394 1644 3394  Q 2231 3394 2613 2919  L 2613 3319  L 3131 3319  L 3131 450  Q 3131 -325 2973 -648  Q 2816 -972 2473 -1159  Q 2131 -1347 1631 -1347  Q 1038 -1347 672 -1080  Q 306 -813 319 -275  z M 784 1719  Q 784 1066 1043 766  Q 1303 466 1694 466  Q 2081 466 2343 764  Q 2606 1063 2606 1700  Q 2606 2309 2336 2618  Q 2066 2928 1684 2928  Q 1309 2928 1046 2623  Q 784 2319 784 1719  z " transform="scale(0.015625)"/>
       <path id="ArialMT-76" d="M 1344 0  L 81 3319  L 675 3319  L 1388 1331  Q 1503 1009 1600 663  Q 1675 925 1809 1294  L 2547 3319  L 3125 3319  L 1869 0  L 1344 0  z " transform="scale(0.015625)"/>
       <path id="ArialMT-66" d="M 556 0  L 556 2881  L 59 2881  L 59 3319  L 556 3319  L 556 3672  Q 556 4006 616 4169  Q 697 4388 901 4523  Q 1106 4659 1475 4659  Q 1713 4659 2000 4603  L 1916 4113  Q 1741 4144 1584 4144  Q 1328 4144 1222 4034  Q 1116 3925 1116 3625  L 1116 3319  L 1763 3319  L 1763 2881  L 1116 2881  L 1116 0  L 556 0  z " transform="scale(0.015625)"/>
       <path id="ArialMT-29" d="M 791 -1347  L 388 -1347  Q 1322 153 1322 1656  Q 1322 2244 1188 2822  Q 1081 3291 891 3722  Q 769 4003 388 4659  L 791 4659  Q 1378 3875 1659 3084  Q 1900 2403 1900 1659  Q 1900 816 1576 28  Q 1253 -759 791 -1347  z " transform="scale(0.015625)"/>
      </defs>
      <use xlink:href="#ArialMT-51"/>
      <use xlink:href="#ArialMT-75" x="77.783203"/>
      <use xlink:href="#ArialMT-61" x="133.398438"/>
      <use xlink:href="#ArialMT-6e" x="189.013672"/>
      <use xlink:href="#ArialMT-74" x="244.628906"/>
      <use xlink:href="#ArialMT-69" x="272.412109"/>
      <use xlink:href="#ArialMT-6c" x="294.628906"/>
      <use xlink:href="#ArialMT-65" x="316.845703"/>
      <use xlink:href="#ArialMT-20" x="372.460938"/>
      <use xlink:href="#ArialMT-28" x="400.244141"/>
      <use xlink:href="#ArialMT-69" x="433.544922"/>
      <use xlink:href="#ArialMT-6e" x="455.761719"/>
      <use xlink:href="#ArialMT-63" x="511.376953"/>
      <use xlink:href="#ArialMT-72" x="561.376953"/>
      <use xlink:href="#ArialMT-65" x="594.677734"/>
      <use xlink:href="#ArialMT-61" x="650.292969"/>
      <use xlink:href="#ArialMT-73" x="705.908203"/>
      <use xlink:href="#ArialMT-69" x="755.908203"/>
      <use xlink:href="#ArialMT-6e" x="778.125"/>
      <use xlink:href="#ArialMT-67" x="833.740234"/>
      <use xlink:href="#ArialMT-20" x="889.355469"/>
      <use xlink:href="#ArialMT-76" x="917.138672"/>
      <use xlink:href="#ArialMT-61" x="967.138672"/>
      <use xlink:href="#ArialMT-6c" x="1022.753906"/>
      <use xlink:href="#ArialMT-75" x="1044.970703"/>
      <use xlink:href="#ArialMT-65" x="1100.585938"/>
      <use xlink:href="#ArialMT-20" x="1156.201172"/>
      <use xlink:href="#ArialMT-6f" x="1183.984375"/>
      <use xlink:href="#ArialMT-66" x="1239.599609"/>
      <use xlink:href="#ArialMT-20" x="1267.382812"/>
      <use xlink:href="#ArialMT-6e" x="1295.166016"/>
      <use xlink:href="#ArialMT-6f" x="1350.78125"/>
      <use xlink:href="#ArialMT-72" x="1406.396484"/>
      <use xlink:href="#ArialMT-6d" x="1439.697266"/>
      <use xlink:href="#ArialMT-29" x="1522.998047"/>
     </g>
    </g>
   </g>
   <g id="matplotlib.axis_6">
    <g id="ytick_11">
     <g id="line2d_74">
      <path d="M 53.530469 624.19964  L 624.01689 624.19964  " clip-path="url(#p9693054b8d)" style="fill: none; stroke: #cccccc; stroke-linecap: round"/>
     </g>
     <g id="text_34">
      <!-- 0.2 -->
      <g style="fill: #262626" transform="translate(24.917969 629.120637)scale(0.1375 -0.1375)">
       <use xlink:href="#ArialMT-30"/>
       <use xlink:href="#ArialMT-2e" x="55.615234"/>
       <use xlink:href="#ArialMT-32" x="83.398438"/>
      </g>
     </g>
    </g>
    <g id="ytick_12">
     <g id="line2d_75">
      <path d="M 53.530469 586.932685  L 624.01689 586.932685  " clip-path="url(#p9693054b8d)" style="fill: none; stroke: #cccccc; stroke-linecap: round"/>
     </g>
     <g id="text_35">
      <!-- 0.4 -->
      <g style="fill: #262626" transform="translate(24.917969 591.853681)scale(0.1375 -0.1375)">
       <use xlink:href="#ArialMT-30"/>
       <use xlink:href="#ArialMT-2e" x="55.615234"/>
       <use xlink:href="#ArialMT-34" x="83.398438"/>
      </g>
     </g>
    </g>
    <g id="ytick_13">
     <g id="line2d_76">
      <path d="M 53.530469 549.665729  L 624.01689 549.665729  " clip-path="url(#p9693054b8d)" style="fill: none; stroke: #cccccc; stroke-linecap: round"/>
     </g>
     <g id="text_36">
      <!-- 0.6 -->
      <g style="fill: #262626" transform="translate(24.917969 554.586725)scale(0.1375 -0.1375)">
       <use xlink:href="#ArialMT-30"/>
       <use xlink:href="#ArialMT-2e" x="55.615234"/>
       <use xlink:href="#ArialMT-36" x="83.398438"/>
      </g>
     </g>
    </g>
    <g id="ytick_14">
     <g id="line2d_77">
      <path d="M 53.530469 512.398774  L 624.01689 512.398774  " clip-path="url(#p9693054b8d)" style="fill: none; stroke: #cccccc; stroke-linecap: round"/>
     </g>
     <g id="text_37">
      <!-- 0.8 -->
      <g style="fill: #262626" transform="translate(24.917969 517.31977)scale(0.1375 -0.1375)">
       <use xlink:href="#ArialMT-30"/>
       <use xlink:href="#ArialMT-2e" x="55.615234"/>
       <use xlink:href="#ArialMT-38" x="83.398438"/>
      </g>
     </g>
    </g>
    <g id="ytick_15">
     <g id="line2d_78">
      <path d="M 53.530469 475.131818  L 624.01689 475.131818  " clip-path="url(#p9693054b8d)" style="fill: none; stroke: #cccccc; stroke-linecap: round"/>
     </g>
     <g id="text_38">
      <!-- 1.0 -->
      <g style="fill: #262626" transform="translate(24.917969 480.052814)scale(0.1375 -0.1375)">
       <use xlink:href="#ArialMT-31"/>
       <use xlink:href="#ArialMT-2e" x="55.615234"/>
       <use xlink:href="#ArialMT-30" x="83.398438"/>
      </g>
     </g>
    </g>
    <g id="text_39">
     <!-- AUPR -->
     <g style="fill: #262626" transform="translate(17.936719 570.621615)rotate(-90)scale(0.15 -0.15)">
      <use xlink:href="#ArialMT-41"/>
      <use xlink:href="#ArialMT-55" x="66.699219"/>
      <use xlink:href="#ArialMT-50" x="138.916016"/>
      <use xlink:href="#ArialMT-52" x="205.615234"/>
     </g>
    </g>
   </g>
   <g id="PolyCollection_7">
    <defs>
     <path id="meb1c1169b5" d="M 79.46167 -108.062154  L 79.46167 -90.783206  L 109.968965 -170.444918  L 140.47626 -191.174439  L 170.983556 -202.814684  L 201.490851 -204.128365  L 231.998146 -204.128924  L 262.505441 -204.128924  L 293.012737 -204.128924  L 323.520032 -204.128924  L 354.027327 -204.128924  L 384.534623 -204.128924  L 415.041918 -204.128924  L 445.549213 -204.128924  L 476.056508 -204.128924  L 506.563804 -204.128924  L 537.071099 -204.128924  L 567.578394 -204.128924  L 598.085689 -204.128924  L 598.085689 -204.128924  L 598.085689 -204.128924  L 567.578394 -204.128924  L 537.071099 -204.128924  L 506.563804 -204.128924  L 476.056508 -204.128924  L 445.549213 -204.128924  L 415.041918 -204.128924  L 384.534623 -204.128924  L 354.027327 -204.128924  L 323.520032 -204.128924  L 293.012737 -204.128924  L 262.505441 -204.128924  L 231.998146 -204.128924  L 201.490851 -204.128924  L 170.983556 -203.771764  L 140.47626 -195.672518  L 109.968965 -177.387405  L 79.46167 -108.062154  z " style="stroke: #4c72b0; stroke-opacity: 0.2"/>
    </defs>
    <g clip-path="url(#p9693054b8d)">
     <use xlink:href="#meb1c1169b5" x="0" y="679.260742" style="fill: #4c72b0; fill-opacity: 0.2; stroke: #4c72b0; stroke-opacity: 0.2"/>
    </g>
   </g>
   <g id="PolyCollection_8">
    <defs>
     <path id="me92ba0729c" d="M 79.46167 -102.12484  L 79.46167 -84.30445  L 109.968965 -157.277494  L 140.47626 -162.652265  L 170.983556 -160.498303  L 201.490851 -158.009331  L 231.998146 -154.756063  L 262.505441 -152.623774  L 293.012737 -152.386176  L 323.520032 -145.346292  L 354.027327 -144.804039  L 384.534623 -138.491152  L 415.041918 -134.274429  L 445.549213 -131.812148  L 476.056508 -125.235045  L 506.563804 -113.686686  L 537.071099 -111.285378  L 567.578394 -111.188435  L 598.085689 -109.738722  L 598.085689 -110.194094  L 598.085689 -110.194094  L 567.578394 -118.740113  L 537.071099 -118.647463  L 506.563804 -121.739609  L 476.056508 -134.833862  L 445.549213 -139.11975  L 415.041918 -142.035643  L 384.534623 -144.525439  L 354.027327 -152.975705  L 323.520032 -151.635613  L 293.012737 -159.33753  L 262.505441 -159.992933  L 231.998146 -160.418884  L 201.490851 -163.634161  L 170.983556 -166.662807  L 140.47626 -169.065589  L 109.968965 -164.636838  L 79.46167 -102.12484  z " style="stroke: #dd8452; stroke-opacity: 0.2"/>
    </defs>
    <g clip-path="url(#p9693054b8d)">
     <use xlink:href="#me92ba0729c" x="0" y="679.260742" style="fill: #dd8452; fill-opacity: 0.2; stroke: #dd8452; stroke-opacity: 0.2"/>
    </g>
   </g>
   <g id="PolyCollection_9">
    <defs>
     <path id="me59c153246" d="M 79.46167 -77.320698  L 79.46167 -56.636494  L 109.968965 -127.066354  L 140.47626 -122.96804  L 170.983556 -118.195682  L 201.490851 -114.262896  L 231.998146 -110.575158  L 262.505441 -109.209415  L 293.012737 -105.130074  L 323.520032 -101.240252  L 354.027327 -94.431779  L 384.534623 -88.789171  L 415.041918 -86.428631  L 445.549213 -83.322046  L 476.056508 -79.409425  L 506.563804 -67.029843  L 537.071099 -64.608772  L 567.578394 -65.318771  L 598.085689 -54.825894  L 598.085689 -59.382899  L 598.085689 -59.382899  L 567.578394 -68.822654  L 537.071099 -66.913407  L 506.563804 -71.081313  L 476.056508 -85.133669  L 445.549213 -89.554588  L 415.041918 -92.378848  L 384.534623 -96.116113  L 354.027327 -99.629467  L 323.520032 -107.64333  L 293.012737 -111.171847  L 262.505441 -114.301947  L 231.998146 -115.300138  L 201.490851 -118.6775  L 170.983556 -121.18463  L 140.47626 -125.676774  L 109.968965 -129.378073  L 79.46167 -77.320698  z " style="stroke: #55a868; stroke-opacity: 0.2"/>
    </defs>
    <g clip-path="url(#p9693054b8d)">
     <use xlink:href="#me59c153246" x="0" y="679.260742" style="fill: #55a868; fill-opacity: 0.2; stroke: #55a868; stroke-opacity: 0.2"/>
    </g>
   </g>
   <g id="line2d_79">
    <path d="M 79.46167 579.928112  L 109.968965 505.179326  L 140.47626 485.823149  L 170.983556 475.932499  L 201.490851 475.132005  L 231.998146 475.131818  L 262.505441 475.131818  L 293.012737 475.131818  L 323.520032 475.131818  L 354.027327 475.131818  L 384.534623 475.131818  L 415.041918 475.131818  L 445.549213 475.131818  L 476.056508 475.131818  L 506.563804 475.131818  L 537.071099 475.131818  L 567.578394 475.131818  L 598.085689 475.131818  " clip-path="url(#p9693054b8d)" style="fill: none; stroke: #4c72b0; stroke-width: 1.5; stroke-linecap: round"/>
   </g>
   <g id="line2d_80">
    <path d="M 79.46167 586.258215  L 109.968965 518.144313  L 140.47626 513.275386  L 170.983556 515.781216  L 201.490851 518.575958  L 231.998146 521.898214  L 262.505441 522.943179  L 293.012737 523.537121  L 323.520032 531.180201  L 354.027327 530.611508  L 384.534623 537.773285  L 415.041918 541.210602  L 445.549213 544.180965  L 476.056508 549.214613  L 506.563804 561.888173  L 537.071099 564.552294  L 567.578394 564.626642  L 598.085689 569.31203  " clip-path="url(#p9693054b8d)" style="fill: none; stroke: #dd8452; stroke-width: 1.5; stroke-linecap: round"/>
   </g>
   <g id="line2d_81">
    <path d="M 79.46167 612.95384  L 109.968965 551.034265  L 140.47626 554.87714  L 170.983556 559.546876  L 201.490851 562.84202  L 231.998146 566.279711  L 262.505441 567.551352  L 293.012737 571.192055  L 323.520032 574.761297  L 354.027327 582.129813  L 384.534623 586.982902  L 415.041918 589.776899  L 445.549213 592.84574  L 476.056508 597.024949  L 506.563804 610.269346  L 537.071099 613.511012  L 567.578394 612.140706  L 598.085689 622.130579  " clip-path="url(#p9693054b8d)" style="fill: none; stroke: #55a868; stroke-width: 1.5; stroke-linecap: round"/>
   </g>
   <g id="patch_9">
    <path d="M 53.530469 631.9  L 53.530469 467.666667  " style="fill: none; stroke: #cccccc; stroke-width: 1.25; stroke-linejoin: miter; stroke-linecap: square"/>
   </g>
   <g id="patch_10">
    <path d="M 53.530469 631.9  L 624.01689 631.9  " style="fill: none; stroke: #cccccc; stroke-width: 1.25; stroke-linejoin: miter; stroke-linecap: square"/>
   </g>
   <g id="text_40">
    <!-- Norm: l2 -->
    <g style="fill: #262626" transform="translate(310.437742 461.666667)scale(0.15 -0.15)">
     <use xlink:href="#ArialMT-4e"/>
     <use xlink:href="#ArialMT-6f" x="72.216797"/>
     <use xlink:href="#ArialMT-72" x="127.832031"/>
     <use xlink:href="#ArialMT-6d" x="161.132812"/>
     <use xlink:href="#ArialMT-3a" x="244.433594"/>
     <use xlink:href="#ArialMT-20" x="272.216797"/>
     <use xlink:href="#ArialMT-6c" x="300"/>
     <use xlink:href="#ArialMT-32" x="322.216797"/>
    </g>
   </g>
  </g>
  <g id="text_41">
   <!-- Quantile bin vs. AUPR for L0/L1/L2 norm, EGFR -->
   <g style="fill: #262626" transform="translate(153.06189 20.084063)scale(0.18 -0.18)">
    <defs>
     <path id="ArialMT-62" d="M 941 0  L 419 0  L 419 4581  L 981 4581  L 981 2947  Q 1338 3394 1891 3394  Q 2197 3394 2470 3270  Q 2744 3147 2920 2923  Q 3097 2700 3197 2384  Q 3297 2069 3297 1709  Q 3297 856 2875 390  Q 2453 -75 1863 -75  Q 1275 -75 941 416  L 941 0  z M 934 1684  Q 934 1088 1097 822  Q 1363 388 1816 388  Q 2184 388 2453 708  Q 2722 1028 2722 1663  Q 2722 2313 2464 2622  Q 2206 2931 1841 2931  Q 1472 2931 1203 2611  Q 934 2291 934 1684  z " transform="scale(0.015625)"/>
     <path id="ArialMT-4c" d="M 469 0  L 469 4581  L 1075 4581  L 1075 541  L 3331 541  L 3331 0  L 469 0  z " transform="scale(0.015625)"/>
     <path id="ArialMT-2f" d="M 0 -78  L 1328 4659  L 1778 4659  L 453 -78  L 0 -78  z " transform="scale(0.015625)"/>
     <path id="ArialMT-2c" d="M 569 0  L 569 641  L 1209 641  L 1209 0  Q 1209 -353 1084 -570  Q 959 -788 688 -906  L 531 -666  Q 709 -588 793 -436  Q 878 -284 888 0  L 569 0  z " transform="scale(0.015625)"/>
     <path id="ArialMT-45" d="M 506 0  L 506 4581  L 3819 4581  L 3819 4041  L 1113 4041  L 1113 2638  L 3647 2638  L 3647 2100  L 1113 2100  L 1113 541  L 3925 541  L 3925 0  L 506 0  z " transform="scale(0.015625)"/>
     <path id="ArialMT-47" d="M 2638 1797  L 2638 2334  L 4578 2338  L 4578 638  Q 4131 281 3656 101  Q 3181 -78 2681 -78  Q 2006 -78 1454 211  Q 903 500 622 1047  Q 341 1594 341 2269  Q 341 2938 620 3517  Q 900 4097 1425 4378  Q 1950 4659 2634 4659  Q 3131 4659 3532 4498  Q 3934 4338 4162 4050  Q 4391 3763 4509 3300  L 3963 3150  Q 3859 3500 3706 3700  Q 3553 3900 3268 4020  Q 2984 4141 2638 4141  Q 2222 4141 1919 4014  Q 1616 3888 1430 3681  Q 1244 3475 1141 3228  Q 966 2803 966 2306  Q 966 1694 1177 1281  Q 1388 869 1791 669  Q 2194 469 2647 469  Q 3041 469 3416 620  Q 3791 772 3984 944  L 3984 1797  L 2638 1797  z " transform="scale(0.015625)"/>
     <path id="ArialMT-46" d="M 525 0  L 525 4581  L 3616 4581  L 3616 4041  L 1131 4041  L 1131 2622  L 3281 2622  L 3281 2081  L 1131 2081  L 1131 0  L 525 0  z " transform="scale(0.015625)"/>
    </defs>
    <use xlink:href="#ArialMT-51"/>
    <use xlink:href="#ArialMT-75" x="77.783203"/>
    <use xlink:href="#ArialMT-61" x="133.398438"/>
    <use xlink:href="#ArialMT-6e" x="189.013672"/>
    <use xlink:href="#ArialMT-74" x="244.628906"/>
    <use xlink:href="#ArialMT-69" x="272.412109"/>
    <use xlink:href="#ArialMT-6c" x="294.628906"/>
    <use xlink:href="#ArialMT-65" x="316.845703"/>
    <use xlink:href="#ArialMT-20" x="372.460938"/>
    <use xlink:href="#ArialMT-62" x="400.244141"/>
    <use xlink:href="#ArialMT-69" x="455.859375"/>
    <use xlink:href="#ArialMT-6e" x="478.076172"/>
    <use xlink:href="#ArialMT-20" x="533.691406"/>
    <use xlink:href="#ArialMT-76" x="561.474609"/>
    <use xlink:href="#ArialMT-73" x="611.474609"/>
    <use xlink:href="#ArialMT-2e" x="661.474609"/>
    <use xlink:href="#ArialMT-20" x="689.257812"/>
    <use xlink:href="#ArialMT-41" x="711.541016"/>
    <use xlink:href="#ArialMT-55" x="778.240234"/>
    <use xlink:href="#ArialMT-50" x="850.457031"/>
    <use xlink:href="#ArialMT-52" x="917.15625"/>
    <use xlink:href="#ArialMT-20" x="989.373047"/>
    <use xlink:href="#ArialMT-66" x="1017.15625"/>
    <use xlink:href="#ArialMT-6f" x="1044.939453"/>
    <use xlink:href="#ArialMT-72" x="1100.554688"/>
    <use xlink:href="#ArialMT-20" x="1133.855469"/>
    <use xlink:href="#ArialMT-4c" x="1161.638672"/>
    <use xlink:href="#ArialMT-30" x="1217.253906"/>
    <use xlink:href="#ArialMT-2f" x="1272.869141"/>
    <use xlink:href="#ArialMT-4c" x="1300.652344"/>
    <use xlink:href="#ArialMT-31" x="1356.267578"/>
    <use xlink:href="#ArialMT-2f" x="1411.882812"/>
    <use xlink:href="#ArialMT-4c" x="1439.666016"/>
    <use xlink:href="#ArialMT-32" x="1495.28125"/>
    <use xlink:href="#ArialMT-20" x="1550.896484"/>
    <use xlink:href="#ArialMT-6e" x="1578.679688"/>
    <use xlink:href="#ArialMT-6f" x="1634.294922"/>
    <use xlink:href="#ArialMT-72" x="1689.910156"/>
    <use xlink:href="#ArialMT-6d" x="1723.210938"/>
    <use xlink:href="#ArialMT-2c" x="1806.511719"/>
    <use xlink:href="#ArialMT-20" x="1834.294922"/>
    <use xlink:href="#ArialMT-45" x="1862.078125"/>
    <use xlink:href="#ArialMT-47" x="1928.777344"/>
    <use xlink:href="#ArialMT-46" x="2006.560547"/>
    <use xlink:href="#ArialMT-52" x="2067.644531"/>
   </g>
  </g>
  <g id="legend_1">
   <g id="text_42">
    <!-- data_type -->
    <g style="fill: #262626" transform="translate(630.081578 314.245508)scale(0.15 -0.15)">
     <defs>
      <path id="ArialMT-64" d="M 2575 0  L 2575 419  Q 2259 -75 1647 -75  Q 1250 -75 917 144  Q 584 363 401 755  Q 219 1147 219 1656  Q 219 2153 384 2558  Q 550 2963 881 3178  Q 1213 3394 1622 3394  Q 1922 3394 2156 3267  Q 2391 3141 2538 2938  L 2538 4581  L 3097 4581  L 3097 0  L 2575 0  z M 797 1656  Q 797 1019 1065 703  Q 1334 388 1700 388  Q 2069 388 2326 689  Q 2584 991 2584 1609  Q 2584 2291 2321 2609  Q 2059 2928 1675 2928  Q 1300 2928 1048 2622  Q 797 2316 797 1656  z " transform="scale(0.015625)"/>
      <path id="ArialMT-5f" d="M -97 -1272  L -97 -866  L 3631 -866  L 3631 -1272  L -97 -1272  z " transform="scale(0.015625)"/>
      <path id="ArialMT-79" d="M 397 -1278  L 334 -750  Q 519 -800 656 -800  Q 844 -800 956 -737  Q 1069 -675 1141 -563  Q 1194 -478 1313 -144  Q 1328 -97 1363 -6  L 103 3319  L 709 3319  L 1400 1397  Q 1534 1031 1641 628  Q 1738 1016 1872 1384  L 2581 3319  L 3144 3319  L 1881 -56  Q 1678 -603 1566 -809  Q 1416 -1088 1222 -1217  Q 1028 -1347 759 -1347  Q 597 -1347 397 -1278  z " transform="scale(0.015625)"/>
      <path id="ArialMT-70" d="M 422 -1272  L 422 3319  L 934 3319  L 934 2888  Q 1116 3141 1344 3267  Q 1572 3394 1897 3394  Q 2322 3394 2647 3175  Q 2972 2956 3137 2557  Q 3303 2159 3303 1684  Q 3303 1175 3120 767  Q 2938 359 2589 142  Q 2241 -75 1856 -75  Q 1575 -75 1351 44  Q 1128 163 984 344  L 984 -1272  L 422 -1272  z M 931 1641  Q 931 1000 1190 694  Q 1450 388 1819 388  Q 2194 388 2461 705  Q 2728 1022 2728 1688  Q 2728 2322 2467 2637  Q 2206 2953 1844 2953  Q 1484 2953 1207 2617  Q 931 2281 931 1641  z " transform="scale(0.015625)"/>
     </defs>
     <use xlink:href="#ArialMT-64"/>
     <use xlink:href="#ArialMT-61" x="55.615234"/>
     <use xlink:href="#ArialMT-74" x="111.230469"/>
     <use xlink:href="#ArialMT-61" x="139.013672"/>
     <use xlink:href="#ArialMT-5f" x="194.628906"/>
     <use xlink:href="#ArialMT-74" x="250.244141"/>
     <use xlink:href="#ArialMT-79" x="278.027344"/>
     <use xlink:href="#ArialMT-70" x="328.027344"/>
     <use xlink:href="#ArialMT-65" x="383.642578"/>
    </g>
   </g>
   <g id="line2d_82">
    <path d="M 630.400035 329.307031  L 644.150035 329.307031  L 657.900035 329.307031  " style="fill: none; stroke: #4c72b0; stroke-width: 1.5; stroke-linecap: round"/>
   </g>
   <g id="text_43">
    <!-- train -->
    <g style="fill: #262626" transform="translate(668.900035 334.119531)scale(0.1375 -0.1375)">
     <use xlink:href="#ArialMT-74"/>
     <use xlink:href="#ArialMT-72" x="27.783203"/>
     <use xlink:href="#ArialMT-61" x="61.083984"/>
     <use xlink:href="#ArialMT-69" x="116.699219"/>
     <use xlink:href="#ArialMT-6e" x="138.916016"/>
    </g>
   </g>
   <g id="line2d_83">
    <path d="M 630.400035 348.756836  L 644.150035 348.756836  L 657.900035 348.756836  " style="fill: none; stroke: #dd8452; stroke-width: 1.5; stroke-linecap: round"/>
   </g>
   <g id="text_44">
    <!-- cv -->
    <g style="fill: #262626" transform="translate(668.900035 353.569336)scale(0.1375 -0.1375)">
     <use xlink:href="#ArialMT-63"/>
     <use xlink:href="#ArialMT-76" x="50"/>
    </g>
   </g>
   <g id="line2d_84">
    <path d="M 630.400035 368.206641  L 644.150035 368.206641  L 657.900035 368.206641  " style="fill: none; stroke: #55a868; stroke-width: 1.5; stroke-linecap: round"/>
   </g>
   <g id="text_45">
    <!-- test -->
    <g style="fill: #262626" transform="translate(668.900035 373.019141)scale(0.1375 -0.1375)">
     <use xlink:href="#ArialMT-74"/>
     <use xlink:href="#ArialMT-65" x="27.783203"/>
     <use xlink:href="#ArialMT-73" x="83.398438"/>
     <use xlink:href="#ArialMT-74" x="133.398438"/>
    </g>
   </g>
  </g>
 </g>
 <defs>
  <clipPath id="p12f75ada75">
   <rect x="53.530469" y="72.8" width="570.486422" height="164.233333"/>
  </clipPath>
  <clipPath id="p2c1d040927">
   <rect x="53.530469" y="270.233333" width="570.486422" height="164.233333"/>
  </clipPath>
  <clipPath id="p9693054b8d">
   <rect x="53.530469" y="467.666667" width="570.486422" height="164.233333"/>
  </clipPath>
 </defs>
</g>
  </g>
</svg>
