<?xml version='1.0' encoding='ASCII' standalone='yes'?>
<svg xmlns="http://www.w3.org/2000/svg" xmlns:xlink="http://www.w3.org/1999/xlink" version="1.1" width="700.0px" viewBox="0 0 700.0 520.0" height="520.0px">
  <g>
    <rect width="100%" height="100%" fill="white"/>
    <g transform="translate(20, 10) scale(1 1) translate(0, 0) scale(1.5 1.5) "><metadata>
  <rdf:RDF xmlns:dc="http://purl.org/dc/elements/1.1/" xmlns:cc="http://creativecommons.org/ns#" xmlns:rdf="http://www.w3.org/1999/02/22-rdf-syntax-ns#">
   <cc:Work>
    <dc:type rdf:resource="http://purl.org/dc/dcmitype/StillImage"/>
    <dc:date>2023-11-07T19:35:59.506635</dc:date>
    <dc:format>image/svg+xml</dc:format>
    <dc:creator>
     <cc:Agent>
      <dc:title>Matplotlib v3.5.1, https://matplotlib.org/</dc:title>
     </cc:Agent>
    </dc:creator>
   </cc:Work>
  </rdf:RDF>
 </metadata>
 <defs>
  <style type="text/css">*{stroke-linejoin: round; stroke-linecap: butt}</style>
 </defs>
 <g id="figure_1">
  <g id="patch_1">
   <path d="M 0 335.696957  L 454.29723 335.696957  L 454.29723 -0  L 0 -0  z " style="fill: #ffffff"/>
  </g>
  <g id="axes_1">
   <g id="patch_2">
    <path d="M 53.74125 290.198207  L 438.46223 290.198207  L 438.46223 29.75638  L 53.74125 29.75638  z " style="fill: #ffffff"/>
   </g>
   <g id="matplotlib.axis_1">
    <g id="xtick_1">
     <g id="line2d_1">
      <defs>
       <path id="m39b7faac60" d="M 0 0  L 0 6  " style="stroke: #262626; stroke-width: 1.25"/>
      </defs>
      <g>
       <use xlink:href="#m39b7faac60" x="53.74125" y="290.198207" style="fill: #262626; stroke: #262626; stroke-width: 1.25"/>
      </g>
     </g>
     <g id="text_1">
      <!-- $\mathdefault{10^{-7}}$ -->
      <g style="fill: #262626" transform="translate(42.85125 310.931957)scale(0.11 -0.11)">
       <defs>
        <path id="ArialMT-31" d="M 2384 0  L 1822 0  L 1822 3584  Q 1619 3391 1289 3197  Q 959 3003 697 2906  L 697 3450  Q 1169 3672 1522 3987  Q 1875 4303 2022 4600  L 2384 4600  L 2384 0  z " transform="scale(0.015625)"/>
        <path id="ArialMT-30" d="M 266 2259  Q 266 3072 433 3567  Q 600 4063 929 4331  Q 1259 4600 1759 4600  Q 2128 4600 2406 4451  Q 2684 4303 2865 4023  Q 3047 3744 3150 3342  Q 3253 2941 3253 2259  Q 3253 1453 3087 958  Q 2922 463 2592 192  Q 2263 -78 1759 -78  Q 1097 -78 719 397  Q 266 969 266 2259  z M 844 2259  Q 844 1131 1108 757  Q 1372 384 1759 384  Q 2147 384 2411 759  Q 2675 1134 2675 2259  Q 2675 3391 2411 3762  Q 2147 4134 1753 4134  Q 1366 4134 1134 3806  Q 844 3388 844 2259  z " transform="scale(0.015625)"/>
        <path id="ArialMT-2212" d="M 3381 1997  L 356 1997  L 356 2522  L 3381 2522  L 3381 1997  z " transform="scale(0.015625)"/>
        <path id="ArialMT-37" d="M 303 3981  L 303 4522  L 3269 4522  L 3269 4084  Q 2831 3619 2401 2847  Q 1972 2075 1738 1259  Q 1569 684 1522 0  L 944 0  Q 953 541 1156 1306  Q 1359 2072 1739 2783  Q 2119 3494 2547 3981  L 303 3981  z " transform="scale(0.015625)"/>
       </defs>
       <use xlink:href="#ArialMT-31" transform="translate(0 0.846875)"/>
       <use xlink:href="#ArialMT-30" transform="translate(55.615234 0.846875)"/>
       <use xlink:href="#ArialMT-2212" transform="translate(112.972813 70.540625)scale(0.7)"/>
       <use xlink:href="#ArialMT-37" transform="translate(153.851719 70.540625)scale(0.7)"/>
      </g>
     </g>
    </g>
    <g id="xtick_2">
     <g id="line2d_2">
      <g>
       <use xlink:href="#m39b7faac60" x="130.685446" y="290.198207" style="fill: #262626; stroke: #262626; stroke-width: 1.25"/>
      </g>
     </g>
     <g id="text_2">
      <!-- $\mathdefault{10^{-5}}$ -->
      <g style="fill: #262626" transform="translate(119.795446 310.931957)scale(0.11 -0.11)">
       <defs>
        <path id="ArialMT-35" d="M 266 1200  L 856 1250  Q 922 819 1161 601  Q 1400 384 1738 384  Q 2144 384 2425 690  Q 2706 997 2706 1503  Q 2706 1984 2436 2262  Q 2166 2541 1728 2541  Q 1456 2541 1237 2417  Q 1019 2294 894 2097  L 366 2166  L 809 4519  L 3088 4519  L 3088 3981  L 1259 3981  L 1013 2750  Q 1425 3038 1878 3038  Q 2478 3038 2890 2622  Q 3303 2206 3303 1553  Q 3303 931 2941 478  Q 2500 -78 1738 -78  Q 1113 -78 717 272  Q 322 622 266 1200  z " transform="scale(0.015625)"/>
       </defs>
       <use xlink:href="#ArialMT-31" transform="translate(0 0.879688)"/>
       <use xlink:href="#ArialMT-30" transform="translate(55.615234 0.879688)"/>
       <use xlink:href="#ArialMT-2212" transform="translate(112.972813 70.573438)scale(0.7)"/>
       <use xlink:href="#ArialMT-35" transform="translate(153.851719 70.573438)scale(0.7)"/>
      </g>
     </g>
    </g>
    <g id="xtick_3">
     <g id="line2d_3">
      <g>
       <use xlink:href="#m39b7faac60" x="207.629642" y="290.198207" style="fill: #262626; stroke: #262626; stroke-width: 1.25"/>
      </g>
     </g>
     <g id="text_3">
      <!-- $\mathdefault{10^{-3}}$ -->
      <g style="fill: #262626" transform="translate(196.739642 311.041957)scale(0.11 -0.11)">
       <defs>
        <path id="ArialMT-33" d="M 269 1209  L 831 1284  Q 928 806 1161 595  Q 1394 384 1728 384  Q 2125 384 2398 659  Q 2672 934 2672 1341  Q 2672 1728 2419 1979  Q 2166 2231 1775 2231  Q 1616 2231 1378 2169  L 1441 2663  Q 1497 2656 1531 2656  Q 1891 2656 2178 2843  Q 2466 3031 2466 3422  Q 2466 3731 2256 3934  Q 2047 4138 1716 4138  Q 1388 4138 1169 3931  Q 950 3725 888 3313  L 325 3413  Q 428 3978 793 4289  Q 1159 4600 1703 4600  Q 2078 4600 2393 4439  Q 2709 4278 2876 4000  Q 3044 3722 3044 3409  Q 3044 3113 2884 2869  Q 2725 2625 2413 2481  Q 2819 2388 3044 2092  Q 3269 1797 3269 1353  Q 3269 753 2831 336  Q 2394 -81 1725 -81  Q 1122 -81 723 278  Q 325 638 269 1209  z " transform="scale(0.015625)"/>
       </defs>
       <use xlink:href="#ArialMT-31" transform="translate(0 0.99375)"/>
       <use xlink:href="#ArialMT-30" transform="translate(55.615234 0.99375)"/>
       <use xlink:href="#ArialMT-2212" transform="translate(112.972813 70.6875)scale(0.7)"/>
       <use xlink:href="#ArialMT-33" transform="translate(153.851719 70.6875)scale(0.7)"/>
      </g>
     </g>
    </g>
    <g id="xtick_4">
     <g id="line2d_4">
      <g>
       <use xlink:href="#m39b7faac60" x="284.573838" y="290.198207" style="fill: #262626; stroke: #262626; stroke-width: 1.25"/>
      </g>
     </g>
     <g id="text_4">
      <!-- $\mathdefault{10^{-1}}$ -->
      <g style="fill: #262626" transform="translate(273.683838 311.041957)scale(0.11 -0.11)">
       <use xlink:href="#ArialMT-31" transform="translate(0 0.99375)"/>
       <use xlink:href="#ArialMT-30" transform="translate(55.615234 0.99375)"/>
       <use xlink:href="#ArialMT-2212" transform="translate(112.972813 70.6875)scale(0.7)"/>
       <use xlink:href="#ArialMT-31" transform="translate(153.851719 70.6875)scale(0.7)"/>
      </g>
     </g>
    </g>
    <g id="xtick_5">
     <g id="line2d_5">
      <g>
       <use xlink:href="#m39b7faac60" x="361.518034" y="290.198207" style="fill: #262626; stroke: #262626; stroke-width: 1.25"/>
      </g>
     </g>
     <g id="text_5">
      <!-- $\mathdefault{10^{1}}$ -->
      <g style="fill: #262626" transform="translate(352.883034 311.041957)scale(0.11 -0.11)">
       <use xlink:href="#ArialMT-31" transform="translate(0 0.99375)"/>
       <use xlink:href="#ArialMT-30" transform="translate(55.615234 0.99375)"/>
       <use xlink:href="#ArialMT-31" transform="translate(112.972813 70.6875)scale(0.7)"/>
      </g>
     </g>
    </g>
    <g id="xtick_6">
     <g id="line2d_6">
      <g>
       <use xlink:href="#m39b7faac60" x="438.46223" y="290.198207" style="fill: #262626; stroke: #262626; stroke-width: 1.25"/>
      </g>
     </g>
     <g id="text_6">
      <!-- $\mathdefault{10^{3}}$ -->
      <g style="fill: #262626" transform="translate(429.82723 311.041957)scale(0.11 -0.11)">
       <use xlink:href="#ArialMT-31" transform="translate(0 0.99375)"/>
       <use xlink:href="#ArialMT-30" transform="translate(55.615234 0.99375)"/>
       <use xlink:href="#ArialMT-33" transform="translate(112.972813 70.6875)scale(0.7)"/>
      </g>
     </g>
    </g>
    <g id="text_7">
     <!-- LASSO parameter (lower = less regularization) -->
     <g style="fill: #262626" transform="translate(121.889552 325.971332)scale(0.12 -0.12)">
      <defs>
       <path id="ArialMT-4c" d="M 469 0  L 469 4581  L 1075 4581  L 1075 541  L 3331 541  L 3331 0  L 469 0  z " transform="scale(0.015625)"/>
       <path id="ArialMT-41" d="M -9 0  L 1750 4581  L 2403 4581  L 4278 0  L 3588 0  L 3053 1388  L 1138 1388  L 634 0  L -9 0  z M 1313 1881  L 2866 1881  L 2388 3150  Q 2169 3728 2063 4100  Q 1975 3659 1816 3225  L 1313 1881  z " transform="scale(0.015625)"/>
       <path id="ArialMT-53" d="M 288 1472  L 859 1522  Q 900 1178 1048 958  Q 1197 738 1509 602  Q 1822 466 2213 466  Q 2559 466 2825 569  Q 3091 672 3220 851  Q 3350 1031 3350 1244  Q 3350 1459 3225 1620  Q 3100 1781 2813 1891  Q 2628 1963 1997 2114  Q 1366 2266 1113 2400  Q 784 2572 623 2826  Q 463 3081 463 3397  Q 463 3744 659 4045  Q 856 4347 1234 4503  Q 1613 4659 2075 4659  Q 2584 4659 2973 4495  Q 3363 4331 3572 4012  Q 3781 3694 3797 3291  L 3216 3247  Q 3169 3681 2898 3903  Q 2628 4125 2100 4125  Q 1550 4125 1298 3923  Q 1047 3722 1047 3438  Q 1047 3191 1225 3031  Q 1400 2872 2139 2705  Q 2878 2538 3153 2413  Q 3553 2228 3743 1945  Q 3934 1663 3934 1294  Q 3934 928 3725 604  Q 3516 281 3123 101  Q 2731 -78 2241 -78  Q 1619 -78 1198 103  Q 778 284 539 648  Q 300 1013 288 1472  z " transform="scale(0.015625)"/>
       <path id="ArialMT-4f" d="M 309 2231  Q 309 3372 921 4017  Q 1534 4663 2503 4663  Q 3138 4663 3647 4359  Q 4156 4056 4423 3514  Q 4691 2972 4691 2284  Q 4691 1588 4409 1038  Q 4128 488 3612 205  Q 3097 -78 2500 -78  Q 1853 -78 1343 234  Q 834 547 571 1087  Q 309 1628 309 2231  z M 934 2222  Q 934 1394 1379 917  Q 1825 441 2497 441  Q 3181 441 3623 922  Q 4066 1403 4066 2288  Q 4066 2847 3877 3264  Q 3688 3681 3323 3911  Q 2959 4141 2506 4141  Q 1863 4141 1398 3698  Q 934 3256 934 2222  z " transform="scale(0.015625)"/>
       <path id="ArialMT-20" transform="scale(0.015625)"/>
       <path id="ArialMT-70" d="M 422 -1272  L 422 3319  L 934 3319  L 934 2888  Q 1116 3141 1344 3267  Q 1572 3394 1897 3394  Q 2322 3394 2647 3175  Q 2972 2956 3137 2557  Q 3303 2159 3303 1684  Q 3303 1175 3120 767  Q 2938 359 2589 142  Q 2241 -75 1856 -75  Q 1575 -75 1351 44  Q 1128 163 984 344  L 984 -1272  L 422 -1272  z M 931 1641  Q 931 1000 1190 694  Q 1450 388 1819 388  Q 2194 388 2461 705  Q 2728 1022 2728 1688  Q 2728 2322 2467 2637  Q 2206 2953 1844 2953  Q 1484 2953 1207 2617  Q 931 2281 931 1641  z " transform="scale(0.015625)"/>
       <path id="ArialMT-61" d="M 2588 409  Q 2275 144 1986 34  Q 1697 -75 1366 -75  Q 819 -75 525 192  Q 231 459 231 875  Q 231 1119 342 1320  Q 453 1522 633 1644  Q 813 1766 1038 1828  Q 1203 1872 1538 1913  Q 2219 1994 2541 2106  Q 2544 2222 2544 2253  Q 2544 2597 2384 2738  Q 2169 2928 1744 2928  Q 1347 2928 1158 2789  Q 969 2650 878 2297  L 328 2372  Q 403 2725 575 2942  Q 747 3159 1072 3276  Q 1397 3394 1825 3394  Q 2250 3394 2515 3294  Q 2781 3194 2906 3042  Q 3031 2891 3081 2659  Q 3109 2516 3109 2141  L 3109 1391  Q 3109 606 3145 398  Q 3181 191 3288 0  L 2700 0  Q 2613 175 2588 409  z M 2541 1666  Q 2234 1541 1622 1453  Q 1275 1403 1131 1340  Q 988 1278 909 1158  Q 831 1038 831 891  Q 831 666 1001 516  Q 1172 366 1500 366  Q 1825 366 2078 508  Q 2331 650 2450 897  Q 2541 1088 2541 1459  L 2541 1666  z " transform="scale(0.015625)"/>
       <path id="ArialMT-72" d="M 416 0  L 416 3319  L 922 3319  L 922 2816  Q 1116 3169 1280 3281  Q 1444 3394 1641 3394  Q 1925 3394 2219 3213  L 2025 2691  Q 1819 2813 1613 2813  Q 1428 2813 1281 2702  Q 1134 2591 1072 2394  Q 978 2094 978 1738  L 978 0  L 416 0  z " transform="scale(0.015625)"/>
       <path id="ArialMT-6d" d="M 422 0  L 422 3319  L 925 3319  L 925 2853  Q 1081 3097 1340 3245  Q 1600 3394 1931 3394  Q 2300 3394 2536 3241  Q 2772 3088 2869 2813  Q 3263 3394 3894 3394  Q 4388 3394 4653 3120  Q 4919 2847 4919 2278  L 4919 0  L 4359 0  L 4359 2091  Q 4359 2428 4304 2576  Q 4250 2725 4106 2815  Q 3963 2906 3769 2906  Q 3419 2906 3187 2673  Q 2956 2441 2956 1928  L 2956 0  L 2394 0  L 2394 2156  Q 2394 2531 2256 2718  Q 2119 2906 1806 2906  Q 1569 2906 1367 2781  Q 1166 2656 1075 2415  Q 984 2175 984 1722  L 984 0  L 422 0  z " transform="scale(0.015625)"/>
       <path id="ArialMT-65" d="M 2694 1069  L 3275 997  Q 3138 488 2766 206  Q 2394 -75 1816 -75  Q 1088 -75 661 373  Q 234 822 234 1631  Q 234 2469 665 2931  Q 1097 3394 1784 3394  Q 2450 3394 2872 2941  Q 3294 2488 3294 1666  Q 3294 1616 3291 1516  L 816 1516  Q 847 969 1125 678  Q 1403 388 1819 388  Q 2128 388 2347 550  Q 2566 713 2694 1069  z M 847 1978  L 2700 1978  Q 2663 2397 2488 2606  Q 2219 2931 1791 2931  Q 1403 2931 1139 2672  Q 875 2413 847 1978  z " transform="scale(0.015625)"/>
       <path id="ArialMT-74" d="M 1650 503  L 1731 6  Q 1494 -44 1306 -44  Q 1000 -44 831 53  Q 663 150 594 308  Q 525 466 525 972  L 525 2881  L 113 2881  L 113 3319  L 525 3319  L 525 4141  L 1084 4478  L 1084 3319  L 1650 3319  L 1650 2881  L 1084 2881  L 1084 941  Q 1084 700 1114 631  Q 1144 563 1211 522  Q 1278 481 1403 481  Q 1497 481 1650 503  z " transform="scale(0.015625)"/>
       <path id="ArialMT-28" d="M 1497 -1347  Q 1031 -759 709 28  Q 388 816 388 1659  Q 388 2403 628 3084  Q 909 3875 1497 4659  L 1900 4659  Q 1522 4009 1400 3731  Q 1209 3300 1100 2831  Q 966 2247 966 1656  Q 966 153 1900 -1347  L 1497 -1347  z " transform="scale(0.015625)"/>
       <path id="ArialMT-6c" d="M 409 0  L 409 4581  L 972 4581  L 972 0  L 409 0  z " transform="scale(0.015625)"/>
       <path id="ArialMT-6f" d="M 213 1659  Q 213 2581 725 3025  Q 1153 3394 1769 3394  Q 2453 3394 2887 2945  Q 3322 2497 3322 1706  Q 3322 1066 3130 698  Q 2938 331 2570 128  Q 2203 -75 1769 -75  Q 1072 -75 642 372  Q 213 819 213 1659  z M 791 1659  Q 791 1022 1069 705  Q 1347 388 1769 388  Q 2188 388 2466 706  Q 2744 1025 2744 1678  Q 2744 2294 2464 2611  Q 2184 2928 1769 2928  Q 1347 2928 1069 2612  Q 791 2297 791 1659  z " transform="scale(0.015625)"/>
       <path id="ArialMT-77" d="M 1034 0  L 19 3319  L 600 3319  L 1128 1403  L 1325 691  Q 1338 744 1497 1375  L 2025 3319  L 2603 3319  L 3100 1394  L 3266 759  L 3456 1400  L 4025 3319  L 4572 3319  L 3534 0  L 2950 0  L 2422 1988  L 2294 2553  L 1622 0  L 1034 0  z " transform="scale(0.015625)"/>
       <path id="ArialMT-3d" d="M 3381 2694  L 356 2694  L 356 3219  L 3381 3219  L 3381 2694  z M 3381 1303  L 356 1303  L 356 1828  L 3381 1828  L 3381 1303  z " transform="scale(0.015625)"/>
       <path id="ArialMT-73" d="M 197 991  L 753 1078  Q 800 744 1014 566  Q 1228 388 1613 388  Q 2000 388 2187 545  Q 2375 703 2375 916  Q 2375 1106 2209 1216  Q 2094 1291 1634 1406  Q 1016 1563 777 1677  Q 538 1791 414 1992  Q 291 2194 291 2438  Q 291 2659 392 2848  Q 494 3038 669 3163  Q 800 3259 1026 3326  Q 1253 3394 1513 3394  Q 1903 3394 2198 3281  Q 2494 3169 2634 2976  Q 2775 2784 2828 2463  L 2278 2388  Q 2241 2644 2061 2787  Q 1881 2931 1553 2931  Q 1166 2931 1000 2803  Q 834 2675 834 2503  Q 834 2394 903 2306  Q 972 2216 1119 2156  Q 1203 2125 1616 2013  Q 2213 1853 2448 1751  Q 2684 1650 2818 1456  Q 2953 1263 2953 975  Q 2953 694 2789 445  Q 2625 197 2315 61  Q 2006 -75 1616 -75  Q 969 -75 630 194  Q 291 463 197 991  z " transform="scale(0.015625)"/>
       <path id="ArialMT-67" d="M 319 -275  L 866 -356  Q 900 -609 1056 -725  Q 1266 -881 1628 -881  Q 2019 -881 2231 -725  Q 2444 -569 2519 -288  Q 2563 -116 2559 434  Q 2191 0 1641 0  Q 956 0 581 494  Q 206 988 206 1678  Q 206 2153 378 2554  Q 550 2956 876 3175  Q 1203 3394 1644 3394  Q 2231 3394 2613 2919  L 2613 3319  L 3131 3319  L 3131 450  Q 3131 -325 2973 -648  Q 2816 -972 2473 -1159  Q 2131 -1347 1631 -1347  Q 1038 -1347 672 -1080  Q 306 -813 319 -275  z M 784 1719  Q 784 1066 1043 766  Q 1303 466 1694 466  Q 2081 466 2343 764  Q 2606 1063 2606 1700  Q 2606 2309 2336 2618  Q 2066 2928 1684 2928  Q 1309 2928 1046 2623  Q 784 2319 784 1719  z " transform="scale(0.015625)"/>
       <path id="ArialMT-75" d="M 2597 0  L 2597 488  Q 2209 -75 1544 -75  Q 1250 -75 995 37  Q 741 150 617 320  Q 494 491 444 738  Q 409 903 409 1263  L 409 3319  L 972 3319  L 972 1478  Q 972 1038 1006 884  Q 1059 663 1231 536  Q 1403 409 1656 409  Q 1909 409 2131 539  Q 2353 669 2445 892  Q 2538 1116 2538 1541  L 2538 3319  L 3100 3319  L 3100 0  L 2597 0  z " transform="scale(0.015625)"/>
       <path id="ArialMT-69" d="M 425 3934  L 425 4581  L 988 4581  L 988 3934  L 425 3934  z M 425 0  L 425 3319  L 988 3319  L 988 0  L 425 0  z " transform="scale(0.015625)"/>
       <path id="ArialMT-7a" d="M 125 0  L 125 456  L 2238 2881  Q 1878 2863 1603 2863  L 250 2863  L 250 3319  L 2963 3319  L 2963 2947  L 1166 841  L 819 456  Q 1197 484 1528 484  L 3063 484  L 3063 0  L 125 0  z " transform="scale(0.015625)"/>
       <path id="ArialMT-6e" d="M 422 0  L 422 3319  L 928 3319  L 928 2847  Q 1294 3394 1984 3394  Q 2284 3394 2536 3286  Q 2788 3178 2913 3003  Q 3038 2828 3088 2588  Q 3119 2431 3119 2041  L 3119 0  L 2556 0  L 2556 2019  Q 2556 2363 2490 2533  Q 2425 2703 2258 2804  Q 2091 2906 1866 2906  Q 1506 2906 1245 2678  Q 984 2450 984 1813  L 984 0  L 422 0  z " transform="scale(0.015625)"/>
       <path id="ArialMT-29" d="M 791 -1347  L 388 -1347  Q 1322 153 1322 1656  Q 1322 2244 1188 2822  Q 1081 3291 891 3722  Q 769 4003 388 4659  L 791 4659  Q 1378 3875 1659 3084  Q 1900 2403 1900 1659  Q 1900 816 1576 28  Q 1253 -759 791 -1347  z " transform="scale(0.015625)"/>
      </defs>
      <use xlink:href="#ArialMT-4c"/>
      <use xlink:href="#ArialMT-41" x="55.615234"/>
      <use xlink:href="#ArialMT-53" x="122.314453"/>
      <use xlink:href="#ArialMT-53" x="189.013672"/>
      <use xlink:href="#ArialMT-4f" x="255.712891"/>
      <use xlink:href="#ArialMT-20" x="333.496094"/>
      <use xlink:href="#ArialMT-70" x="361.279297"/>
      <use xlink:href="#ArialMT-61" x="416.894531"/>
      <use xlink:href="#ArialMT-72" x="472.509766"/>
      <use xlink:href="#ArialMT-61" x="505.810547"/>
      <use xlink:href="#ArialMT-6d" x="561.425781"/>
      <use xlink:href="#ArialMT-65" x="644.726562"/>
      <use xlink:href="#ArialMT-74" x="700.341797"/>
      <use xlink:href="#ArialMT-65" x="728.125"/>
      <use xlink:href="#ArialMT-72" x="783.740234"/>
      <use xlink:href="#ArialMT-20" x="817.041016"/>
      <use xlink:href="#ArialMT-28" x="844.824219"/>
      <use xlink:href="#ArialMT-6c" x="878.125"/>
      <use xlink:href="#ArialMT-6f" x="900.341797"/>
      <use xlink:href="#ArialMT-77" x="955.957031"/>
      <use xlink:href="#ArialMT-65" x="1028.173828"/>
      <use xlink:href="#ArialMT-72" x="1083.789062"/>
      <use xlink:href="#ArialMT-20" x="1117.089844"/>
      <use xlink:href="#ArialMT-3d" x="1144.873047"/>
      <use xlink:href="#ArialMT-20" x="1203.271484"/>
      <use xlink:href="#ArialMT-6c" x="1231.054688"/>
      <use xlink:href="#ArialMT-65" x="1253.271484"/>
      <use xlink:href="#ArialMT-73" x="1308.886719"/>
      <use xlink:href="#ArialMT-73" x="1358.886719"/>
      <use xlink:href="#ArialMT-20" x="1408.886719"/>
      <use xlink:href="#ArialMT-72" x="1436.669922"/>
      <use xlink:href="#ArialMT-65" x="1469.970703"/>
      <use xlink:href="#ArialMT-67" x="1525.585938"/>
      <use xlink:href="#ArialMT-75" x="1581.201172"/>
      <use xlink:href="#ArialMT-6c" x="1636.816406"/>
      <use xlink:href="#ArialMT-61" x="1659.033203"/>
      <use xlink:href="#ArialMT-72" x="1714.648438"/>
      <use xlink:href="#ArialMT-69" x="1747.949219"/>
      <use xlink:href="#ArialMT-7a" x="1770.166016"/>
      <use xlink:href="#ArialMT-61" x="1820.166016"/>
      <use xlink:href="#ArialMT-74" x="1875.78125"/>
      <use xlink:href="#ArialMT-69" x="1903.564453"/>
      <use xlink:href="#ArialMT-6f" x="1925.78125"/>
      <use xlink:href="#ArialMT-6e" x="1981.396484"/>
      <use xlink:href="#ArialMT-29" x="2037.011719"/>
     </g>
    </g>
   </g>
   <g id="matplotlib.axis_2">
    <g id="ytick_1">
     <g id="line2d_7">
      <defs>
       <path id="ma8415e6bc6" d="M 0 0  L -6 0  " style="stroke: #262626; stroke-width: 1.25"/>
      </defs>
      <g>
       <use xlink:href="#ma8415e6bc6" x="53.74125" y="290.198207" style="fill: #262626; stroke: #262626; stroke-width: 1.25"/>
      </g>
     </g>
     <g id="text_8">
      <!-- $\mathdefault{10^{-1}}$ -->
      <g style="fill: #262626" transform="translate(22.46125 295.870082)scale(0.11 -0.11)">
       <use xlink:href="#ArialMT-31" transform="translate(0 0.99375)"/>
       <use xlink:href="#ArialMT-30" transform="translate(55.615234 0.99375)"/>
       <use xlink:href="#ArialMT-2212" transform="translate(112.972813 70.6875)scale(0.7)"/>
       <use xlink:href="#ArialMT-31" transform="translate(153.851719 70.6875)scale(0.7)"/>
      </g>
     </g>
    </g>
    <g id="ytick_2">
     <g id="line2d_8">
      <g>
       <use xlink:href="#ma8415e6bc6" x="53.74125" y="232.322246" style="fill: #262626; stroke: #262626; stroke-width: 1.25"/>
      </g>
     </g>
     <g id="text_9">
      <!-- $\mathdefault{10^{1}}$ -->
      <g style="fill: #262626" transform="translate(26.97125 237.994121)scale(0.11 -0.11)">
       <use xlink:href="#ArialMT-31" transform="translate(0 0.99375)"/>
       <use xlink:href="#ArialMT-30" transform="translate(55.615234 0.99375)"/>
       <use xlink:href="#ArialMT-31" transform="translate(112.972813 70.6875)scale(0.7)"/>
      </g>
     </g>
    </g>
    <g id="ytick_3">
     <g id="line2d_9">
      <g>
       <use xlink:href="#ma8415e6bc6" x="53.74125" y="174.446284" style="fill: #262626; stroke: #262626; stroke-width: 1.25"/>
      </g>
     </g>
     <g id="text_10">
      <!-- $\mathdefault{10^{3}}$ -->
      <g style="fill: #262626" transform="translate(26.97125 180.118159)scale(0.11 -0.11)">
       <use xlink:href="#ArialMT-31" transform="translate(0 0.99375)"/>
       <use xlink:href="#ArialMT-30" transform="translate(55.615234 0.99375)"/>
       <use xlink:href="#ArialMT-33" transform="translate(112.972813 70.6875)scale(0.7)"/>
      </g>
     </g>
    </g>
    <g id="ytick_4">
     <g id="line2d_10">
      <g>
       <use xlink:href="#ma8415e6bc6" x="53.74125" y="116.570322" style="fill: #262626; stroke: #262626; stroke-width: 1.25"/>
      </g>
     </g>
     <g id="text_11">
      <!-- $\mathdefault{10^{5}}$ -->
      <g style="fill: #262626" transform="translate(26.97125 122.187197)scale(0.11 -0.11)">
       <use xlink:href="#ArialMT-31" transform="translate(0 0.879688)"/>
       <use xlink:href="#ArialMT-30" transform="translate(55.615234 0.879688)"/>
       <use xlink:href="#ArialMT-35" transform="translate(112.972813 70.573438)scale(0.7)"/>
      </g>
     </g>
    </g>
    <g id="ytick_5">
     <g id="line2d_11">
      <g>
       <use xlink:href="#ma8415e6bc6" x="53.74125" y="58.694361" style="fill: #262626; stroke: #262626; stroke-width: 1.25"/>
      </g>
     </g>
     <g id="text_12">
      <!-- $\mathdefault{10^{7}}$ -->
      <g style="fill: #262626" transform="translate(26.97125 64.311236)scale(0.11 -0.11)">
       <use xlink:href="#ArialMT-31" transform="translate(0 0.846875)"/>
       <use xlink:href="#ArialMT-30" transform="translate(55.615234 0.846875)"/>
       <use xlink:href="#ArialMT-37" transform="translate(112.972813 70.540625)scale(0.7)"/>
      </g>
     </g>
    </g>
    <g id="text_13">
     <!-- Sum of coefficient weights + 1 -->
     <g style="fill: #262626" transform="translate(15.935625 239.743544)rotate(-90)scale(0.12 -0.12)">
      <defs>
       <path id="ArialMT-66" d="M 556 0  L 556 2881  L 59 2881  L 59 3319  L 556 3319  L 556 3672  Q 556 4006 616 4169  Q 697 4388 901 4523  Q 1106 4659 1475 4659  Q 1713 4659 2000 4603  L 1916 4113  Q 1741 4144 1584 4144  Q 1328 4144 1222 4034  Q 1116 3925 1116 3625  L 1116 3319  L 1763 3319  L 1763 2881  L 1116 2881  L 1116 0  L 556 0  z " transform="scale(0.015625)"/>
       <path id="ArialMT-63" d="M 2588 1216  L 3141 1144  Q 3050 572 2676 248  Q 2303 -75 1759 -75  Q 1078 -75 664 370  Q 250 816 250 1647  Q 250 2184 428 2587  Q 606 2991 970 3192  Q 1334 3394 1763 3394  Q 2303 3394 2647 3120  Q 2991 2847 3088 2344  L 2541 2259  Q 2463 2594 2264 2762  Q 2066 2931 1784 2931  Q 1359 2931 1093 2626  Q 828 2322 828 1663  Q 828 994 1084 691  Q 1341 388 1753 388  Q 2084 388 2306 591  Q 2528 794 2588 1216  z " transform="scale(0.015625)"/>
       <path id="ArialMT-68" d="M 422 0  L 422 4581  L 984 4581  L 984 2938  Q 1378 3394 1978 3394  Q 2347 3394 2619 3248  Q 2891 3103 3008 2847  Q 3125 2591 3125 2103  L 3125 0  L 2563 0  L 2563 2103  Q 2563 2525 2380 2717  Q 2197 2909 1863 2909  Q 1613 2909 1392 2779  Q 1172 2650 1078 2428  Q 984 2206 984 1816  L 984 0  L 422 0  z " transform="scale(0.015625)"/>
       <path id="ArialMT-2b" d="M 1603 741  L 1603 1997  L 356 1997  L 356 2522  L 1603 2522  L 1603 3769  L 2134 3769  L 2134 2522  L 3381 2522  L 3381 1997  L 2134 1997  L 2134 741  L 1603 741  z " transform="scale(0.015625)"/>
      </defs>
      <use xlink:href="#ArialMT-53"/>
      <use xlink:href="#ArialMT-75" x="66.699219"/>
      <use xlink:href="#ArialMT-6d" x="122.314453"/>
      <use xlink:href="#ArialMT-20" x="205.615234"/>
      <use xlink:href="#ArialMT-6f" x="233.398438"/>
      <use xlink:href="#ArialMT-66" x="289.013672"/>
      <use xlink:href="#ArialMT-20" x="316.796875"/>
      <use xlink:href="#ArialMT-63" x="344.580078"/>
      <use xlink:href="#ArialMT-6f" x="394.580078"/>
      <use xlink:href="#ArialMT-65" x="450.195312"/>
      <use xlink:href="#ArialMT-66" x="505.810547"/>
      <use xlink:href="#ArialMT-66" x="531.84375"/>
      <use xlink:href="#ArialMT-69" x="559.626953"/>
      <use xlink:href="#ArialMT-63" x="581.84375"/>
      <use xlink:href="#ArialMT-69" x="631.84375"/>
      <use xlink:href="#ArialMT-65" x="654.060547"/>
      <use xlink:href="#ArialMT-6e" x="709.675781"/>
      <use xlink:href="#ArialMT-74" x="765.291016"/>
      <use xlink:href="#ArialMT-20" x="793.074219"/>
      <use xlink:href="#ArialMT-77" x="820.857422"/>
      <use xlink:href="#ArialMT-65" x="893.074219"/>
      <use xlink:href="#ArialMT-69" x="948.689453"/>
      <use xlink:href="#ArialMT-67" x="970.90625"/>
      <use xlink:href="#ArialMT-68" x="1026.521484"/>
      <use xlink:href="#ArialMT-74" x="1082.136719"/>
      <use xlink:href="#ArialMT-73" x="1109.919922"/>
      <use xlink:href="#ArialMT-20" x="1159.919922"/>
      <use xlink:href="#ArialMT-2b" x="1187.703125"/>
      <use xlink:href="#ArialMT-20" x="1246.101562"/>
      <use xlink:href="#ArialMT-31" x="1273.884766"/>
     </g>
    </g>
   </g>
   <g id="PolyCollection_1">
    <defs>
     <path id="m4b2788c44a" d="M 53.74125 -206.092727  L 53.74125 -205.500447  L 72.96526 -205.51965  L 92.213348 -205.431507  L 111.437358 -205.592348  L 130.685446 -205.250868  L 149.909456 -204.803959  L 169.157544 -203.405169  L 188.381554 -199.112373  L 207.629642 -183.080074  L 226.853652 -144.72296  L 246.10174 -113.088187  L 265.32575 -94.809534  L 284.573838 -80.858421  L 303.797848 -74.436731  L 323.045936 -74.436731  L 342.269946 -74.436731  L 361.518034 -74.436731  L 380.742044 -74.436731  L 399.990132 -74.436731  L 419.214142 -74.436731  L 438.46223 -74.436731  L 438.46223 -74.436731  L 438.46223 -74.436731  L 419.214142 -74.436731  L 399.990132 -74.436731  L 380.742044 -74.436731  L 361.518034 -74.436731  L 342.269946 -74.436731  L 323.045936 -74.436731  L 303.797848 -74.436731  L 284.573838 -81.564575  L 265.32575 -95.121754  L 246.10174 -114.819132  L 226.853652 -152.923186  L 207.629642 -186.59259  L 188.381554 -200.498944  L 169.157544 -204.155892  L 149.909456 -205.269695  L 130.685446 -205.700235  L 111.437358 -206.104461  L 92.213348 -206.045385  L 72.96526 -205.990359  L 53.74125 -206.092727  z " style="stroke: #1f77b4; stroke-opacity: 0.2"/>
    </defs>
    <g clip-path="url(#p7fbed2746b)">
     <use xlink:href="#m4b2788c44a" x="0" y="335.696957" style="fill: #1f77b4; fill-opacity: 0.2; stroke: #1f77b4; stroke-opacity: 0.2"/>
    </g>
   </g>
   <g id="PolyCollection_2">
    <defs>
     <path id="mcc4d7a4f83" d="M 53.74125 -166.85091  L 53.74125 -166.493275  L 72.96526 -166.455033  L 92.213348 -166.234499  L 111.437358 -166.329561  L 130.685446 -166.232153  L 149.909456 -165.603461  L 169.157544 -164.809429  L 188.381554 -160.606551  L 207.629642 -147.776809  L 226.853652 -125.368086  L 246.10174 -114.038117  L 265.32575 -95.877466  L 284.573838 -80.98782  L 303.797848 -74.436731  L 323.045936 -74.436731  L 342.269946 -74.436731  L 361.518034 -74.436731  L 380.742044 -74.436731  L 399.990132 -74.436731  L 419.214142 -74.436731  L 438.46223 -74.436731  L 438.46223 -74.436731  L 438.46223 -74.436731  L 419.214142 -74.436731  L 399.990132 -74.436731  L 380.742044 -74.436731  L 361.518034 -74.436731  L 342.269946 -74.436731  L 323.045936 -74.436731  L 303.797848 -74.436731  L 284.573838 -82.171282  L 265.32575 -96.942319  L 246.10174 -114.500099  L 226.853652 -127.125409  L 207.629642 -149.226589  L 188.381554 -161.410853  L 169.157544 -165.133882  L 149.909456 -166.152834  L 130.685446 -166.672538  L 111.437358 -166.977376  L 92.213348 -166.954916  L 72.96526 -167.017515  L 53.74125 -166.85091  z " style="stroke: #ff7f0e; stroke-opacity: 0.2"/>
    </defs>
    <g clip-path="url(#p7fbed2746b)">
     <use xlink:href="#mcc4d7a4f83" x="0" y="335.696957" style="fill: #ff7f0e; fill-opacity: 0.2; stroke: #ff7f0e; stroke-opacity: 0.2"/>
    </g>
   </g>
   <g id="PolyCollection_3">
    <defs>
     <path id="mea2b5414a7" d="M 53.74125 -128.575292  L 53.74125 -127.863974  L 72.96526 -127.856829  L 92.213348 -127.855156  L 111.437358 -127.849938  L 130.685446 -127.827431  L 149.909456 -127.685364  L 169.157544 -127.457406  L 188.381554 -126.585893  L 207.629642 -123.957271  L 226.853652 -117.391041  L 246.10174 -107.406843  L 265.32575 -93.704576  L 284.573838 -80.270882  L 303.797848 -74.436731  L 323.045936 -74.436731  L 342.269946 -74.436731  L 361.518034 -74.436731  L 380.742044 -74.436731  L 399.990132 -74.436731  L 419.214142 -74.436731  L 438.46223 -74.436731  L 438.46223 -74.436731  L 438.46223 -74.436731  L 419.214142 -74.436731  L 399.990132 -74.436731  L 380.742044 -74.436731  L 361.518034 -74.436731  L 342.269946 -74.436731  L 323.045936 -74.436731  L 303.797848 -74.436731  L 284.573838 -81.645276  L 265.32575 -96.393581  L 246.10174 -109.695617  L 226.853652 -117.743445  L 207.629642 -124.274701  L 188.381554 -127.195924  L 169.157544 -128.12536  L 149.909456 -128.423433  L 130.685446 -128.495467  L 111.437358 -128.546917  L 92.213348 -128.555739  L 72.96526 -128.546632  L 53.74125 -128.575292  z " style="stroke: #2ca02c; stroke-opacity: 0.2"/>
    </defs>
    <g clip-path="url(#p7fbed2746b)">
     <use xlink:href="#mea2b5414a7" x="0" y="335.696957" style="fill: #2ca02c; fill-opacity: 0.2; stroke: #2ca02c; stroke-opacity: 0.2"/>
    </g>
   </g>
   <g id="PolyCollection_4">
    <defs>
     <path id="m9beee9eb0a" d="M 53.74125 -166.460868  L 53.74125 -165.21902  L 72.96526 -165.174884  L 92.213348 -165.226174  L 111.437358 -165.180977  L 130.685446 -165.13858  L 149.909456 -165.001001  L 169.157544 -164.620437  L 188.381554 -163.277428  L 207.629642 -158.827853  L 226.853652 -144.88402  L 246.10174 -124.421671  L 265.32575 -95.583337  L 284.573838 -80.89158  L 303.797848 -74.436731  L 323.045936 -74.436731  L 342.269946 -74.436731  L 361.518034 -74.436731  L 380.742044 -74.436731  L 399.990132 -74.436731  L 419.214142 -74.436731  L 438.46223 -74.436731  L 438.46223 -74.436731  L 438.46223 -74.436731  L 419.214142 -74.436731  L 399.990132 -74.436731  L 380.742044 -74.436731  L 361.518034 -74.436731  L 342.269946 -74.436731  L 323.045936 -74.436731  L 303.797848 -74.436731  L 284.573838 -82.18848  L 265.32575 -97.728168  L 246.10174 -127.051243  L 226.853652 -148.238846  L 207.629642 -160.352334  L 188.381554 -164.517982  L 169.157544 -165.873476  L 149.909456 -166.278904  L 130.685446 -166.405352  L 111.437358 -166.441247  L 92.213348 -166.395856  L 72.96526 -166.449829  L 53.74125 -166.460868  z " style="stroke: #d62728; stroke-opacity: 0.2"/>
    </defs>
    <g clip-path="url(#p7fbed2746b)">
     <use xlink:href="#m9beee9eb0a" x="0" y="335.696957" style="fill: #d62728; fill-opacity: 0.2; stroke: #d62728; stroke-opacity: 0.2"/>
    </g>
   </g>
   <g id="PolyCollection_5">
    <defs>
     <path id="m6f2ab8dc70" d="M 53.74125 -284.812922  L 53.74125 -284.170382  L 72.96526 -280.069088  L 92.213348 -275.369003  L 111.437358 -270.334997  L 130.685446 -264.3767  L 149.909456 -257.628671  L 169.157544 -250.132625  L 188.381554 -241.575672  L 207.629642 -230.072051  L 226.853652 -214.89272  L 246.10174 -192.651947  L 265.32575 -161.240426  L 284.573838 -127.184572  L 303.797848 -99.415733  L 323.045936 -75.904745  L 342.269946 -74.436731  L 361.518034 -74.436731  L 380.742044 -74.436731  L 399.990132 -74.436731  L 419.214142 -74.436731  L 438.46223 -74.436731  L 438.46223 -74.436731  L 438.46223 -74.436731  L 419.214142 -74.436731  L 399.990132 -74.436731  L 380.742044 -74.436731  L 361.518034 -74.436731  L 342.269946 -87.698617  L 323.045936 -98.87002  L 303.797848 -127.428209  L 284.573838 -155.112603  L 265.32575 -176.963566  L 246.10174 -198.301414  L 226.853652 -216.499827  L 207.629642 -231.48775  L 188.381554 -242.044985  L 169.157544 -250.606671  L 149.909456 -258.246928  L 130.685446 -264.841272  L 111.437358 -270.728174  L 92.213348 -275.737998  L 72.96526 -280.709135  L 53.74125 -284.812922  z " style="stroke: #9467bd; stroke-opacity: 0.2"/>
    </defs>
    <g clip-path="url(#p7fbed2746b)">
     <use xlink:href="#m6f2ab8dc70" x="0" y="335.696957" style="fill: #9467bd; fill-opacity: 0.2; stroke: #9467bd; stroke-opacity: 0.2"/>
    </g>
   </g>
   <g id="PolyCollection_6">
    <defs>
     <path id="m5fb2b964c7" d="M 53.74125 -153.229456  L 53.74125 -152.529275  L 72.96526 -152.517072  L 92.213348 -152.549692  L 111.437358 -152.537438  L 130.685446 -152.512248  L 149.909456 -152.504982  L 169.157544 -152.411779  L 188.381554 -152.165594  L 207.629642 -151.472729  L 226.853652 -147.571013  L 246.10174 -142.693819  L 265.32575 -139.999684  L 284.573838 -136.07369  L 303.797848 -132.621897  L 323.045936 -127.959504  L 342.269946 -122.600926  L 361.518034 -114.020663  L 380.742044 -99.065887  L 399.990132 -84.808725  L 419.214142 -74.436731  L 438.46223 -74.436731  L 438.46223 -74.436731  L 438.46223 -74.436731  L 419.214142 -74.436731  L 399.990132 -85.124398  L 380.742044 -99.434977  L 361.518034 -114.284656  L 342.269946 -122.930869  L 323.045936 -128.282401  L 303.797848 -133.09902  L 284.573838 -136.456271  L 265.32575 -140.458404  L 246.10174 -143.133156  L 226.853652 -148.480846  L 207.629642 -152.132501  L 188.381554 -152.912425  L 169.157544 -153.142378  L 149.909456 -153.22342  L 130.685446 -153.249133  L 111.437358 -153.258745  L 92.213348 -153.281865  L 72.96526 -153.245948  L 53.74125 -153.229456  z " style="stroke: #8c564b; stroke-opacity: 0.2"/>
    </defs>
    <g clip-path="url(#p7fbed2746b)">
     <use xlink:href="#m5fb2b964c7" x="0" y="335.696957" style="fill: #8c564b; fill-opacity: 0.2; stroke: #8c564b; stroke-opacity: 0.2"/>
    </g>
   </g>
   <g id="line2d_12">
    <path d="M 53.74125 129.958243  L 72.96526 129.919497  L 92.213348 129.948661  L 111.437358 129.84439  L 130.685446 130.198954  L 149.909456 130.672576  L 169.157544 131.888249  L 188.381554 135.858018  L 207.629642 150.478941  L 226.853652 186.829216  L 246.10174 221.74931  L 265.32575 240.718639  L 284.573838 254.485057  L 303.797848 261.260226  L 323.045936 261.260226  L 342.269946 261.260226  L 361.518034 261.260226  L 380.742044 261.260226  L 399.990132 261.260226  L 419.214142 261.260226  L 438.46223 261.260226  " clip-path="url(#p7fbed2746b)" style="fill: none; stroke: #1f77b4; stroke-width: 1.5; stroke-linecap: round"/>
    <defs>
     <path id="mc33a2b6f77" d="M 0 3  C 0.795609 3 1.55874 2.683901 2.12132 2.12132  C 2.683901 1.55874 3 0.795609 3 0  C 3 -0.795609 2.683901 -1.55874 2.12132 -2.12132  C 1.55874 -2.683901 0.795609 -3 0 -3  C -0.795609 -3 -1.55874 -2.683901 -2.12132 -2.12132  C -2.683901 -1.55874 -3 -0.795609 -3 0  C -3 0.795609 -2.683901 1.55874 -2.12132 2.12132  C -1.55874 2.683901 -0.795609 3 0 3  z " style="stroke: #ffffff; stroke-width: 0.75"/>
    </defs>
    <g clip-path="url(#p7fbed2746b)">
     <use xlink:href="#mc33a2b6f77" x="53.74125" y="129.958243" style="fill: #1f77b4; stroke: #ffffff; stroke-width: 0.75"/>
     <use xlink:href="#mc33a2b6f77" x="72.96526" y="129.919497" style="fill: #1f77b4; stroke: #ffffff; stroke-width: 0.75"/>
     <use xlink:href="#mc33a2b6f77" x="92.213348" y="129.948661" style="fill: #1f77b4; stroke: #ffffff; stroke-width: 0.75"/>
     <use xlink:href="#mc33a2b6f77" x="111.437358" y="129.84439" style="fill: #1f77b4; stroke: #ffffff; stroke-width: 0.75"/>
     <use xlink:href="#mc33a2b6f77" x="130.685446" y="130.198954" style="fill: #1f77b4; stroke: #ffffff; stroke-width: 0.75"/>
     <use xlink:href="#mc33a2b6f77" x="149.909456" y="130.672576" style="fill: #1f77b4; stroke: #ffffff; stroke-width: 0.75"/>
     <use xlink:href="#mc33a2b6f77" x="169.157544" y="131.888249" style="fill: #1f77b4; stroke: #ffffff; stroke-width: 0.75"/>
     <use xlink:href="#mc33a2b6f77" x="188.381554" y="135.858018" style="fill: #1f77b4; stroke: #ffffff; stroke-width: 0.75"/>
     <use xlink:href="#mc33a2b6f77" x="207.629642" y="150.478941" style="fill: #1f77b4; stroke: #ffffff; stroke-width: 0.75"/>
     <use xlink:href="#mc33a2b6f77" x="226.853652" y="186.829216" style="fill: #1f77b4; stroke: #ffffff; stroke-width: 0.75"/>
     <use xlink:href="#mc33a2b6f77" x="246.10174" y="221.74931" style="fill: #1f77b4; stroke: #ffffff; stroke-width: 0.75"/>
     <use xlink:href="#mc33a2b6f77" x="265.32575" y="240.718639" style="fill: #1f77b4; stroke: #ffffff; stroke-width: 0.75"/>
     <use xlink:href="#mc33a2b6f77" x="284.573838" y="254.485057" style="fill: #1f77b4; stroke: #ffffff; stroke-width: 0.75"/>
     <use xlink:href="#mc33a2b6f77" x="303.797848" y="261.260226" style="fill: #1f77b4; stroke: #ffffff; stroke-width: 0.75"/>
     <use xlink:href="#mc33a2b6f77" x="323.045936" y="261.260226" style="fill: #1f77b4; stroke: #ffffff; stroke-width: 0.75"/>
     <use xlink:href="#mc33a2b6f77" x="342.269946" y="261.260226" style="fill: #1f77b4; stroke: #ffffff; stroke-width: 0.75"/>
     <use xlink:href="#mc33a2b6f77" x="361.518034" y="261.260226" style="fill: #1f77b4; stroke: #ffffff; stroke-width: 0.75"/>
     <use xlink:href="#mc33a2b6f77" x="380.742044" y="261.260226" style="fill: #1f77b4; stroke: #ffffff; stroke-width: 0.75"/>
     <use xlink:href="#mc33a2b6f77" x="399.990132" y="261.260226" style="fill: #1f77b4; stroke: #ffffff; stroke-width: 0.75"/>
     <use xlink:href="#mc33a2b6f77" x="419.214142" y="261.260226" style="fill: #1f77b4; stroke: #ffffff; stroke-width: 0.75"/>
     <use xlink:href="#mc33a2b6f77" x="438.46223" y="261.260226" style="fill: #1f77b4; stroke: #ffffff; stroke-width: 0.75"/>
    </g>
   </g>
   <g id="line2d_13">
    <path d="M 53.74125 169.020994  L 72.96526 168.930009  L 92.213348 169.090164  L 111.437358 169.0657  L 130.685446 169.23133  L 149.909456 169.789722  L 169.157544 170.729659  L 188.381554 174.660542  L 207.629642 187.125492  L 226.853652 209.553211  L 246.10174 221.444095  L 265.32575 239.228568  L 284.573838 254.151622  L 303.797848 261.260226  L 323.045936 261.260226  L 342.269946 261.260226  L 361.518034 261.260226  L 380.742044 261.260226  L 399.990132 261.260226  L 419.214142 261.260226  L 438.46223 261.260226  " clip-path="url(#p7fbed2746b)" style="fill: none; stroke: #ff7f0e; stroke-width: 1.5; stroke-linecap: round"/>
    <defs>
     <path id="mfe7a4258d3" d="M 0 3  C 0.795609 3 1.55874 2.683901 2.12132 2.12132  C 2.683901 1.55874 3 0.795609 3 0  C 3 -0.795609 2.683901 -1.55874 2.12132 -2.12132  C 1.55874 -2.683901 0.795609 -3 0 -3  C -0.795609 -3 -1.55874 -2.683901 -2.12132 -2.12132  C -2.683901 -1.55874 -3 -0.795609 -3 0  C -3 0.795609 -2.683901 1.55874 -2.12132 2.12132  C -1.55874 2.683901 -0.795609 3 0 3  z " style="stroke: #ffffff; stroke-width: 0.75"/>
    </defs>
    <g clip-path="url(#p7fbed2746b)">
     <use xlink:href="#mfe7a4258d3" x="53.74125" y="169.020994" style="fill: #ff7f0e; stroke: #ffffff; stroke-width: 0.75"/>
     <use xlink:href="#mfe7a4258d3" x="72.96526" y="168.930009" style="fill: #ff7f0e; stroke: #ffffff; stroke-width: 0.75"/>
     <use xlink:href="#mfe7a4258d3" x="92.213348" y="169.090164" style="fill: #ff7f0e; stroke: #ffffff; stroke-width: 0.75"/>
     <use xlink:href="#mfe7a4258d3" x="111.437358" y="169.0657" style="fill: #ff7f0e; stroke: #ffffff; stroke-width: 0.75"/>
     <use xlink:href="#mfe7a4258d3" x="130.685446" y="169.23133" style="fill: #ff7f0e; stroke: #ffffff; stroke-width: 0.75"/>
     <use xlink:href="#mfe7a4258d3" x="149.909456" y="169.789722" style="fill: #ff7f0e; stroke: #ffffff; stroke-width: 0.75"/>
     <use xlink:href="#mfe7a4258d3" x="169.157544" y="170.729659" style="fill: #ff7f0e; stroke: #ffffff; stroke-width: 0.75"/>
     <use xlink:href="#mfe7a4258d3" x="188.381554" y="174.660542" style="fill: #ff7f0e; stroke: #ffffff; stroke-width: 0.75"/>
     <use xlink:href="#mfe7a4258d3" x="207.629642" y="187.125492" style="fill: #ff7f0e; stroke: #ffffff; stroke-width: 0.75"/>
     <use xlink:href="#mfe7a4258d3" x="226.853652" y="209.553211" style="fill: #ff7f0e; stroke: #ffffff; stroke-width: 0.75"/>
     <use xlink:href="#mfe7a4258d3" x="246.10174" y="221.444095" style="fill: #ff7f0e; stroke: #ffffff; stroke-width: 0.75"/>
     <use xlink:href="#mfe7a4258d3" x="265.32575" y="239.228568" style="fill: #ff7f0e; stroke: #ffffff; stroke-width: 0.75"/>
     <use xlink:href="#mfe7a4258d3" x="284.573838" y="254.151622" style="fill: #ff7f0e; stroke: #ffffff; stroke-width: 0.75"/>
     <use xlink:href="#mfe7a4258d3" x="303.797848" y="261.260226" style="fill: #ff7f0e; stroke: #ffffff; stroke-width: 0.75"/>
     <use xlink:href="#mfe7a4258d3" x="323.045936" y="261.260226" style="fill: #ff7f0e; stroke: #ffffff; stroke-width: 0.75"/>
     <use xlink:href="#mfe7a4258d3" x="342.269946" y="261.260226" style="fill: #ff7f0e; stroke: #ffffff; stroke-width: 0.75"/>
     <use xlink:href="#mfe7a4258d3" x="361.518034" y="261.260226" style="fill: #ff7f0e; stroke: #ffffff; stroke-width: 0.75"/>
     <use xlink:href="#mfe7a4258d3" x="380.742044" y="261.260226" style="fill: #ff7f0e; stroke: #ffffff; stroke-width: 0.75"/>
     <use xlink:href="#mfe7a4258d3" x="399.990132" y="261.260226" style="fill: #ff7f0e; stroke: #ffffff; stroke-width: 0.75"/>
     <use xlink:href="#mfe7a4258d3" x="419.214142" y="261.260226" style="fill: #ff7f0e; stroke: #ffffff; stroke-width: 0.75"/>
     <use xlink:href="#mfe7a4258d3" x="438.46223" y="261.260226" style="fill: #ff7f0e; stroke: #ffffff; stroke-width: 0.75"/>
    </g>
   </g>
   <g id="line2d_14">
    <path d="M 53.74125 207.513119  L 72.96526 207.514031  L 92.213348 207.516916  L 111.437358 207.526039  L 130.685446 207.554873  L 149.909456 207.645858  L 169.157544 207.931851  L 188.381554 208.816923  L 207.629642 211.586213  L 226.853652 218.104789  L 246.10174 227.105473  L 265.32575 240.660673  L 284.573838 254.688797  L 303.797848 261.260226  L 323.045936 261.260226  L 342.269946 261.260226  L 361.518034 261.260226  L 380.742044 261.260226  L 399.990132 261.260226  L 419.214142 261.260226  L 438.46223 261.260226  " clip-path="url(#p7fbed2746b)" style="fill: none; stroke: #2ca02c; stroke-width: 1.5; stroke-linecap: round"/>
    <defs>
     <path id="mf1aed5d11e" d="M 0 3  C 0.795609 3 1.55874 2.683901 2.12132 2.12132  C 2.683901 1.55874 3 0.795609 3 0  C 3 -0.795609 2.683901 -1.55874 2.12132 -2.12132  C 1.55874 -2.683901 0.795609 -3 0 -3  C -0.795609 -3 -1.55874 -2.683901 -2.12132 -2.12132  C -2.683901 -1.55874 -3 -0.795609 -3 0  C -3 0.795609 -2.683901 1.55874 -2.12132 2.12132  C -1.55874 2.683901 -0.795609 3 0 3  z " style="stroke: #ffffff; stroke-width: 0.75"/>
    </defs>
    <g clip-path="url(#p7fbed2746b)">
     <use xlink:href="#mf1aed5d11e" x="53.74125" y="207.513119" style="fill: #2ca02c; stroke: #ffffff; stroke-width: 0.75"/>
     <use xlink:href="#mf1aed5d11e" x="72.96526" y="207.514031" style="fill: #2ca02c; stroke: #ffffff; stroke-width: 0.75"/>
     <use xlink:href="#mf1aed5d11e" x="92.213348" y="207.516916" style="fill: #2ca02c; stroke: #ffffff; stroke-width: 0.75"/>
     <use xlink:href="#mf1aed5d11e" x="111.437358" y="207.526039" style="fill: #2ca02c; stroke: #ffffff; stroke-width: 0.75"/>
     <use xlink:href="#mf1aed5d11e" x="130.685446" y="207.554873" style="fill: #2ca02c; stroke: #ffffff; stroke-width: 0.75"/>
     <use xlink:href="#mf1aed5d11e" x="149.909456" y="207.645858" style="fill: #2ca02c; stroke: #ffffff; stroke-width: 0.75"/>
     <use xlink:href="#mf1aed5d11e" x="169.157544" y="207.931851" style="fill: #2ca02c; stroke: #ffffff; stroke-width: 0.75"/>
     <use xlink:href="#mf1aed5d11e" x="188.381554" y="208.816923" style="fill: #2ca02c; stroke: #ffffff; stroke-width: 0.75"/>
     <use xlink:href="#mf1aed5d11e" x="207.629642" y="211.586213" style="fill: #2ca02c; stroke: #ffffff; stroke-width: 0.75"/>
     <use xlink:href="#mf1aed5d11e" x="226.853652" y="218.104789" style="fill: #2ca02c; stroke: #ffffff; stroke-width: 0.75"/>
     <use xlink:href="#mf1aed5d11e" x="246.10174" y="227.105473" style="fill: #2ca02c; stroke: #ffffff; stroke-width: 0.75"/>
     <use xlink:href="#mf1aed5d11e" x="265.32575" y="240.660673" style="fill: #2ca02c; stroke: #ffffff; stroke-width: 0.75"/>
     <use xlink:href="#mf1aed5d11e" x="284.573838" y="254.688797" style="fill: #2ca02c; stroke: #ffffff; stroke-width: 0.75"/>
     <use xlink:href="#mf1aed5d11e" x="303.797848" y="261.260226" style="fill: #2ca02c; stroke: #ffffff; stroke-width: 0.75"/>
     <use xlink:href="#mf1aed5d11e" x="323.045936" y="261.260226" style="fill: #2ca02c; stroke: #ffffff; stroke-width: 0.75"/>
     <use xlink:href="#mf1aed5d11e" x="342.269946" y="261.260226" style="fill: #2ca02c; stroke: #ffffff; stroke-width: 0.75"/>
     <use xlink:href="#mf1aed5d11e" x="361.518034" y="261.260226" style="fill: #2ca02c; stroke: #ffffff; stroke-width: 0.75"/>
     <use xlink:href="#mf1aed5d11e" x="380.742044" y="261.260226" style="fill: #2ca02c; stroke: #ffffff; stroke-width: 0.75"/>
     <use xlink:href="#mf1aed5d11e" x="399.990132" y="261.260226" style="fill: #2ca02c; stroke: #ffffff; stroke-width: 0.75"/>
     <use xlink:href="#mf1aed5d11e" x="419.214142" y="261.260226" style="fill: #2ca02c; stroke: #ffffff; stroke-width: 0.75"/>
     <use xlink:href="#mf1aed5d11e" x="438.46223" y="261.260226" style="fill: #2ca02c; stroke: #ffffff; stroke-width: 0.75"/>
    </g>
   </g>
   <g id="line2d_15">
    <path d="M 53.74125 169.917184  L 72.96526 169.921364  L 92.213348 169.942793  L 111.437358 169.946188  L 130.685446 169.953076  L 149.909456 170.088958  L 169.157544 170.501372  L 188.381554 171.827812  L 207.629642 176.089258  L 226.853652 188.875478  L 246.10174 209.879077  L 265.32575 239.075901  L 284.573838 254.25862  L 303.797848 261.260226  L 323.045936 261.260226  L 342.269946 261.260226  L 361.518034 261.260226  L 380.742044 261.260226  L 399.990132 261.260226  L 419.214142 261.260226  L 438.46223 261.260226  " clip-path="url(#p7fbed2746b)" style="fill: none; stroke: #d62728; stroke-width: 1.5; stroke-linecap: round"/>
    <defs>
     <path id="m089298952d" d="M 0 3  C 0.795609 3 1.55874 2.683901 2.12132 2.12132  C 2.683901 1.55874 3 0.795609 3 0  C 3 -0.795609 2.683901 -1.55874 2.12132 -2.12132  C 1.55874 -2.683901 0.795609 -3 0 -3  C -0.795609 -3 -1.55874 -2.683901 -2.12132 -2.12132  C -2.683901 -1.55874 -3 -0.795609 -3 0  C -3 0.795609 -2.683901 1.55874 -2.12132 2.12132  C -1.55874 2.683901 -0.795609 3 0 3  z " style="stroke: #ffffff; stroke-width: 0.75"/>
    </defs>
    <g clip-path="url(#p7fbed2746b)">
     <use xlink:href="#m089298952d" x="53.74125" y="169.917184" style="fill: #d62728; stroke: #ffffff; stroke-width: 0.75"/>
     <use xlink:href="#m089298952d" x="72.96526" y="169.921364" style="fill: #d62728; stroke: #ffffff; stroke-width: 0.75"/>
     <use xlink:href="#m089298952d" x="92.213348" y="169.942793" style="fill: #d62728; stroke: #ffffff; stroke-width: 0.75"/>
     <use xlink:href="#m089298952d" x="111.437358" y="169.946188" style="fill: #d62728; stroke: #ffffff; stroke-width: 0.75"/>
     <use xlink:href="#m089298952d" x="130.685446" y="169.953076" style="fill: #d62728; stroke: #ffffff; stroke-width: 0.75"/>
     <use xlink:href="#m089298952d" x="149.909456" y="170.088958" style="fill: #d62728; stroke: #ffffff; stroke-width: 0.75"/>
     <use xlink:href="#m089298952d" x="169.157544" y="170.501372" style="fill: #d62728; stroke: #ffffff; stroke-width: 0.75"/>
     <use xlink:href="#m089298952d" x="188.381554" y="171.827812" style="fill: #d62728; stroke: #ffffff; stroke-width: 0.75"/>
     <use xlink:href="#m089298952d" x="207.629642" y="176.089258" style="fill: #d62728; stroke: #ffffff; stroke-width: 0.75"/>
     <use xlink:href="#m089298952d" x="226.853652" y="188.875478" style="fill: #d62728; stroke: #ffffff; stroke-width: 0.75"/>
     <use xlink:href="#m089298952d" x="246.10174" y="209.879077" style="fill: #d62728; stroke: #ffffff; stroke-width: 0.75"/>
     <use xlink:href="#m089298952d" x="265.32575" y="239.075901" style="fill: #d62728; stroke: #ffffff; stroke-width: 0.75"/>
     <use xlink:href="#m089298952d" x="284.573838" y="254.25862" style="fill: #d62728; stroke: #ffffff; stroke-width: 0.75"/>
     <use xlink:href="#m089298952d" x="303.797848" y="261.260226" style="fill: #d62728; stroke: #ffffff; stroke-width: 0.75"/>
     <use xlink:href="#m089298952d" x="323.045936" y="261.260226" style="fill: #d62728; stroke: #ffffff; stroke-width: 0.75"/>
     <use xlink:href="#m089298952d" x="342.269946" y="261.260226" style="fill: #d62728; stroke: #ffffff; stroke-width: 0.75"/>
     <use xlink:href="#m089298952d" x="361.518034" y="261.260226" style="fill: #d62728; stroke: #ffffff; stroke-width: 0.75"/>
     <use xlink:href="#m089298952d" x="380.742044" y="261.260226" style="fill: #d62728; stroke: #ffffff; stroke-width: 0.75"/>
     <use xlink:href="#m089298952d" x="399.990132" y="261.260226" style="fill: #d62728; stroke: #ffffff; stroke-width: 0.75"/>
     <use xlink:href="#m089298952d" x="419.214142" y="261.260226" style="fill: #d62728; stroke: #ffffff; stroke-width: 0.75"/>
     <use xlink:href="#m089298952d" x="438.46223" y="261.260226" style="fill: #d62728; stroke: #ffffff; stroke-width: 0.75"/>
    </g>
   </g>
   <g id="line2d_16">
    <path d="M 53.74125 51.171676  L 72.96526 55.306657  L 92.213348 60.130211  L 111.437358 65.159346  L 130.685446 71.077251  L 149.909456 77.80059  L 169.157544 85.352628  L 188.381554 93.876702  L 207.629642 105.004957  L 226.853652 119.963585  L 246.10174 140.105998  L 265.32575 166.024813  L 284.573838 190.978405  L 303.797848 218.242081  L 323.045936 245.789188  L 342.269946 255.164551  L 361.518034 261.260226  L 380.742044 261.260226  L 399.990132 261.260226  L 419.214142 261.260226  L 438.46223 261.260226  " clip-path="url(#p7fbed2746b)" style="fill: none; stroke: #9467bd; stroke-width: 1.5; stroke-linecap: round"/>
    <defs>
     <path id="m9e7a283b18" d="M 0 3  C 0.795609 3 1.55874 2.683901 2.12132 2.12132  C 2.683901 1.55874 3 0.795609 3 0  C 3 -0.795609 2.683901 -1.55874 2.12132 -2.12132  C 1.55874 -2.683901 0.795609 -3 0 -3  C -0.795609 -3 -1.55874 -2.683901 -2.12132 -2.12132  C -2.683901 -1.55874 -3 -0.795609 -3 0  C -3 0.795609 -2.683901 1.55874 -2.12132 2.12132  C -1.55874 2.683901 -0.795609 3 0 3  z " style="stroke: #ffffff; stroke-width: 0.75"/>
    </defs>
    <g clip-path="url(#p7fbed2746b)">
     <use xlink:href="#m9e7a283b18" x="53.74125" y="51.171676" style="fill: #9467bd; stroke: #ffffff; stroke-width: 0.75"/>
     <use xlink:href="#m9e7a283b18" x="72.96526" y="55.306657" style="fill: #9467bd; stroke: #ffffff; stroke-width: 0.75"/>
     <use xlink:href="#m9e7a283b18" x="92.213348" y="60.130211" style="fill: #9467bd; stroke: #ffffff; stroke-width: 0.75"/>
     <use xlink:href="#m9e7a283b18" x="111.437358" y="65.159346" style="fill: #9467bd; stroke: #ffffff; stroke-width: 0.75"/>
     <use xlink:href="#m9e7a283b18" x="130.685446" y="71.077251" style="fill: #9467bd; stroke: #ffffff; stroke-width: 0.75"/>
     <use xlink:href="#m9e7a283b18" x="149.909456" y="77.80059" style="fill: #9467bd; stroke: #ffffff; stroke-width: 0.75"/>
     <use xlink:href="#m9e7a283b18" x="169.157544" y="85.352628" style="fill: #9467bd; stroke: #ffffff; stroke-width: 0.75"/>
     <use xlink:href="#m9e7a283b18" x="188.381554" y="93.876702" style="fill: #9467bd; stroke: #ffffff; stroke-width: 0.75"/>
     <use xlink:href="#m9e7a283b18" x="207.629642" y="105.004957" style="fill: #9467bd; stroke: #ffffff; stroke-width: 0.75"/>
     <use xlink:href="#m9e7a283b18" x="226.853652" y="119.963585" style="fill: #9467bd; stroke: #ffffff; stroke-width: 0.75"/>
     <use xlink:href="#m9e7a283b18" x="246.10174" y="140.105998" style="fill: #9467bd; stroke: #ffffff; stroke-width: 0.75"/>
     <use xlink:href="#m9e7a283b18" x="265.32575" y="166.024813" style="fill: #9467bd; stroke: #ffffff; stroke-width: 0.75"/>
     <use xlink:href="#m9e7a283b18" x="284.573838" y="190.978405" style="fill: #9467bd; stroke: #ffffff; stroke-width: 0.75"/>
     <use xlink:href="#m9e7a283b18" x="303.797848" y="218.242081" style="fill: #9467bd; stroke: #ffffff; stroke-width: 0.75"/>
     <use xlink:href="#m9e7a283b18" x="323.045936" y="245.789188" style="fill: #9467bd; stroke: #ffffff; stroke-width: 0.75"/>
     <use xlink:href="#m9e7a283b18" x="342.269946" y="255.164551" style="fill: #9467bd; stroke: #ffffff; stroke-width: 0.75"/>
     <use xlink:href="#m9e7a283b18" x="361.518034" y="261.260226" style="fill: #9467bd; stroke: #ffffff; stroke-width: 0.75"/>
     <use xlink:href="#m9e7a283b18" x="380.742044" y="261.260226" style="fill: #9467bd; stroke: #ffffff; stroke-width: 0.75"/>
     <use xlink:href="#m9e7a283b18" x="399.990132" y="261.260226" style="fill: #9467bd; stroke: #ffffff; stroke-width: 0.75"/>
     <use xlink:href="#m9e7a283b18" x="419.214142" y="261.260226" style="fill: #9467bd; stroke: #ffffff; stroke-width: 0.75"/>
     <use xlink:href="#m9e7a283b18" x="438.46223" y="261.260226" style="fill: #9467bd; stroke: #ffffff; stroke-width: 0.75"/>
    </g>
   </g>
   <g id="line2d_17">
    <path d="M 53.74125 182.822768  L 72.96526 182.823025  L 92.213348 182.823835  L 111.437358 182.826393  L 130.685446 182.834497  L 149.909456 182.860089  L 169.157544 182.94066  L 188.381554 183.19137  L 207.629642 183.920807  L 226.853652 187.678278  L 246.10174 192.797002  L 265.32575 195.489079  L 284.573838 199.436607  L 303.797848 202.844265  L 323.045936 207.578058  L 342.269946 212.924062  L 361.518034 221.545699  L 380.742044 236.446868  L 399.990132 250.738318  L 419.214142 261.260226  L 438.46223 261.260226  " clip-path="url(#p7fbed2746b)" style="fill: none; stroke: #8c564b; stroke-width: 1.5; stroke-linecap: round"/>
    <defs>
     <path id="mb6cca7dcf9" d="M 0 3  C 0.795609 3 1.55874 2.683901 2.12132 2.12132  C 2.683901 1.55874 3 0.795609 3 0  C 3 -0.795609 2.683901 -1.55874 2.12132 -2.12132  C 1.55874 -2.683901 0.795609 -3 0 -3  C -0.795609 -3 -1.55874 -2.683901 -2.12132 -2.12132  C -2.683901 -1.55874 -3 -0.795609 -3 0  C -3 0.795609 -2.683901 1.55874 -2.12132 2.12132  C -1.55874 2.683901 -0.795609 3 0 3  z " style="stroke: #ffffff; stroke-width: 0.75"/>
    </defs>
    <g clip-path="url(#p7fbed2746b)">
     <use xlink:href="#mb6cca7dcf9" x="53.74125" y="182.822768" style="fill: #8c564b; stroke: #ffffff; stroke-width: 0.75"/>
     <use xlink:href="#mb6cca7dcf9" x="72.96526" y="182.823025" style="fill: #8c564b; stroke: #ffffff; stroke-width: 0.75"/>
     <use xlink:href="#mb6cca7dcf9" x="92.213348" y="182.823835" style="fill: #8c564b; stroke: #ffffff; stroke-width: 0.75"/>
     <use xlink:href="#mb6cca7dcf9" x="111.437358" y="182.826393" style="fill: #8c564b; stroke: #ffffff; stroke-width: 0.75"/>
     <use xlink:href="#mb6cca7dcf9" x="130.685446" y="182.834497" style="fill: #8c564b; stroke: #ffffff; stroke-width: 0.75"/>
     <use xlink:href="#mb6cca7dcf9" x="149.909456" y="182.860089" style="fill: #8c564b; stroke: #ffffff; stroke-width: 0.75"/>
     <use xlink:href="#mb6cca7dcf9" x="169.157544" y="182.94066" style="fill: #8c564b; stroke: #ffffff; stroke-width: 0.75"/>
     <use xlink:href="#mb6cca7dcf9" x="188.381554" y="183.19137" style="fill: #8c564b; stroke: #ffffff; stroke-width: 0.75"/>
     <use xlink:href="#mb6cca7dcf9" x="207.629642" y="183.920807" style="fill: #8c564b; stroke: #ffffff; stroke-width: 0.75"/>
     <use xlink:href="#mb6cca7dcf9" x="226.853652" y="187.678278" style="fill: #8c564b; stroke: #ffffff; stroke-width: 0.75"/>
     <use xlink:href="#mb6cca7dcf9" x="246.10174" y="192.797002" style="fill: #8c564b; stroke: #ffffff; stroke-width: 0.75"/>
     <use xlink:href="#mb6cca7dcf9" x="265.32575" y="195.489079" style="fill: #8c564b; stroke: #ffffff; stroke-width: 0.75"/>
     <use xlink:href="#mb6cca7dcf9" x="284.573838" y="199.436607" style="fill: #8c564b; stroke: #ffffff; stroke-width: 0.75"/>
     <use xlink:href="#mb6cca7dcf9" x="303.797848" y="202.844265" style="fill: #8c564b; stroke: #ffffff; stroke-width: 0.75"/>
     <use xlink:href="#mb6cca7dcf9" x="323.045936" y="207.578058" style="fill: #8c564b; stroke: #ffffff; stroke-width: 0.75"/>
     <use xlink:href="#mb6cca7dcf9" x="342.269946" y="212.924062" style="fill: #8c564b; stroke: #ffffff; stroke-width: 0.75"/>
     <use xlink:href="#mb6cca7dcf9" x="361.518034" y="221.545699" style="fill: #8c564b; stroke: #ffffff; stroke-width: 0.75"/>
     <use xlink:href="#mb6cca7dcf9" x="380.742044" y="236.446868" style="fill: #8c564b; stroke: #ffffff; stroke-width: 0.75"/>
     <use xlink:href="#mb6cca7dcf9" x="399.990132" y="250.738318" style="fill: #8c564b; stroke: #ffffff; stroke-width: 0.75"/>
     <use xlink:href="#mb6cca7dcf9" x="419.214142" y="261.260226" style="fill: #8c564b; stroke: #ffffff; stroke-width: 0.75"/>
     <use xlink:href="#mb6cca7dcf9" x="438.46223" y="261.260226" style="fill: #8c564b; stroke: #ffffff; stroke-width: 0.75"/>
    </g>
   </g>
   <g id="line2d_18"/>
   <g id="line2d_19"/>
   <g id="line2d_20"/>
   <g id="line2d_21"/>
   <g id="line2d_22"/>
   <g id="line2d_23"/>
   <g id="patch_3">
    <path d="M 53.74125 290.198207  L 53.74125 29.75638  " style="fill: none; stroke: #262626; stroke-width: 1.25; stroke-linejoin: miter; stroke-linecap: square"/>
   </g>
   <g id="patch_4">
    <path d="M 438.46223 290.198207  L 438.46223 29.75638  " style="fill: none; stroke: #262626; stroke-width: 1.25; stroke-linejoin: miter; stroke-linecap: square"/>
   </g>
   <g id="patch_5">
    <path d="M 53.74125 290.198207  L 438.46223 290.198207  " style="fill: none; stroke: #262626; stroke-width: 1.25; stroke-linejoin: miter; stroke-linecap: square"/>
   </g>
   <g id="patch_6">
    <path d="M 53.74125 29.75638  L 438.46223 29.75638  " style="fill: none; stroke: #262626; stroke-width: 1.25; stroke-linejoin: miter; stroke-linecap: square"/>
   </g>
   <g id="text_14">
    <!-- LASSO parameter vs. sum of coefficient weights, KRAS -->
    <g style="fill: #262626" transform="translate(97.818302 15.943125)scale(0.12 -0.12)">
     <defs>
      <path id="ArialMT-76" d="M 1344 0  L 81 3319  L 675 3319  L 1388 1331  Q 1503 1009 1600 663  Q 1675 925 1809 1294  L 2547 3319  L 3125 3319  L 1869 0  L 1344 0  z " transform="scale(0.015625)"/>
      <path id="ArialMT-2e" d="M 581 0  L 581 641  L 1222 641  L 1222 0  L 581 0  z " transform="scale(0.015625)"/>
      <path id="ArialMT-2c" d="M 569 0  L 569 641  L 1209 641  L 1209 0  Q 1209 -353 1084 -570  Q 959 -788 688 -906  L 531 -666  Q 709 -588 793 -436  Q 878 -284 888 0  L 569 0  z " transform="scale(0.015625)"/>
      <path id="ArialMT-4b" d="M 469 0  L 469 4581  L 1075 4581  L 1075 2309  L 3350 4581  L 4172 4581  L 2250 2725  L 4256 0  L 3456 0  L 1825 2319  L 1075 1588  L 1075 0  L 469 0  z " transform="scale(0.015625)"/>
      <path id="ArialMT-52" d="M 503 0  L 503 4581  L 2534 4581  Q 3147 4581 3465 4457  Q 3784 4334 3975 4021  Q 4166 3709 4166 3331  Q 4166 2844 3850 2509  Q 3534 2175 2875 2084  Q 3116 1969 3241 1856  Q 3506 1613 3744 1247  L 4541 0  L 3778 0  L 3172 953  Q 2906 1366 2734 1584  Q 2563 1803 2427 1890  Q 2291 1978 2150 2013  Q 2047 2034 1813 2034  L 1109 2034  L 1109 0  L 503 0  z M 1109 2559  L 2413 2559  Q 2828 2559 3062 2645  Q 3297 2731 3419 2920  Q 3541 3109 3541 3331  Q 3541 3656 3305 3865  Q 3069 4075 2559 4075  L 1109 4075  L 1109 2559  z " transform="scale(0.015625)"/>
     </defs>
     <use xlink:href="#ArialMT-4c"/>
     <use xlink:href="#ArialMT-41" x="55.615234"/>
     <use xlink:href="#ArialMT-53" x="122.314453"/>
     <use xlink:href="#ArialMT-53" x="189.013672"/>
     <use xlink:href="#ArialMT-4f" x="255.712891"/>
     <use xlink:href="#ArialMT-20" x="333.496094"/>
     <use xlink:href="#ArialMT-70" x="361.279297"/>
     <use xlink:href="#ArialMT-61" x="416.894531"/>
     <use xlink:href="#ArialMT-72" x="472.509766"/>
     <use xlink:href="#ArialMT-61" x="505.810547"/>
     <use xlink:href="#ArialMT-6d" x="561.425781"/>
     <use xlink:href="#ArialMT-65" x="644.726562"/>
     <use xlink:href="#ArialMT-74" x="700.341797"/>
     <use xlink:href="#ArialMT-65" x="728.125"/>
     <use xlink:href="#ArialMT-72" x="783.740234"/>
     <use xlink:href="#ArialMT-20" x="817.041016"/>
     <use xlink:href="#ArialMT-76" x="844.824219"/>
     <use xlink:href="#ArialMT-73" x="894.824219"/>
     <use xlink:href="#ArialMT-2e" x="944.824219"/>
     <use xlink:href="#ArialMT-20" x="972.607422"/>
     <use xlink:href="#ArialMT-73" x="1000.390625"/>
     <use xlink:href="#ArialMT-75" x="1050.390625"/>
     <use xlink:href="#ArialMT-6d" x="1106.005859"/>
     <use xlink:href="#ArialMT-20" x="1189.306641"/>
     <use xlink:href="#ArialMT-6f" x="1217.089844"/>
     <use xlink:href="#ArialMT-66" x="1272.705078"/>
     <use xlink:href="#ArialMT-20" x="1300.488281"/>
     <use xlink:href="#ArialMT-63" x="1328.271484"/>
     <use xlink:href="#ArialMT-6f" x="1378.271484"/>
     <use xlink:href="#ArialMT-65" x="1433.886719"/>
     <use xlink:href="#ArialMT-66" x="1489.501953"/>
     <use xlink:href="#ArialMT-66" x="1515.535156"/>
     <use xlink:href="#ArialMT-69" x="1543.318359"/>
     <use xlink:href="#ArialMT-63" x="1565.535156"/>
     <use xlink:href="#ArialMT-69" x="1615.535156"/>
     <use xlink:href="#ArialMT-65" x="1637.751953"/>
     <use xlink:href="#ArialMT-6e" x="1693.367188"/>
     <use xlink:href="#ArialMT-74" x="1748.982422"/>
     <use xlink:href="#ArialMT-20" x="1776.765625"/>
     <use xlink:href="#ArialMT-77" x="1804.548828"/>
     <use xlink:href="#ArialMT-65" x="1876.765625"/>
     <use xlink:href="#ArialMT-69" x="1932.380859"/>
     <use xlink:href="#ArialMT-67" x="1954.597656"/>
     <use xlink:href="#ArialMT-68" x="2010.212891"/>
     <use xlink:href="#ArialMT-74" x="2065.828125"/>
     <use xlink:href="#ArialMT-73" x="2093.611328"/>
     <use xlink:href="#ArialMT-2c" x="2143.611328"/>
     <use xlink:href="#ArialMT-20" x="2171.394531"/>
     <use xlink:href="#ArialMT-4b" x="2199.177734"/>
     <use xlink:href="#ArialMT-52" x="2265.876953"/>
     <use xlink:href="#ArialMT-41" x="2338.09375"/>
     <use xlink:href="#ArialMT-53" x="2404.792969"/>
    </g>
   </g>
   <g id="legend_1">
    <g id="patch_7">
     <path d="M 304.286605 148.659349  L 430.76223 148.659349  Q 432.96223 148.659349 432.96223 146.459349  L 432.96223 37.45638  Q 432.96223 35.25638 430.76223 35.25638  L 304.286605 35.25638  Q 302.086605 35.25638 302.086605 37.45638  L 302.086605 146.459349  Q 302.086605 148.659349 304.286605 148.659349  z " style="fill: #ffffff; opacity: 0.8; stroke: #cccccc; stroke-linejoin: miter"/>
    </g>
    <g id="text_15">
     <!-- Learning rate schedule -->
     <g style="fill: #262626" transform="translate(306.486605 48.245755)scale(0.12 -0.12)">
      <defs>
       <path id="ArialMT-64" d="M 2575 0  L 2575 419  Q 2259 -75 1647 -75  Q 1250 -75 917 144  Q 584 363 401 755  Q 219 1147 219 1656  Q 219 2153 384 2558  Q 550 2963 881 3178  Q 1213 3394 1622 3394  Q 1922 3394 2156 3267  Q 2391 3141 2538 2938  L 2538 4581  L 3097 4581  L 3097 0  L 2575 0  z M 797 1656  Q 797 1019 1065 703  Q 1334 388 1700 388  Q 2069 388 2326 689  Q 2584 991 2584 1609  Q 2584 2291 2321 2609  Q 2059 2928 1675 2928  Q 1300 2928 1048 2622  Q 797 2316 797 1656  z " transform="scale(0.015625)"/>
      </defs>
      <use xlink:href="#ArialMT-4c"/>
      <use xlink:href="#ArialMT-65" x="55.615234"/>
      <use xlink:href="#ArialMT-61" x="111.230469"/>
      <use xlink:href="#ArialMT-72" x="166.845703"/>
      <use xlink:href="#ArialMT-6e" x="200.146484"/>
      <use xlink:href="#ArialMT-69" x="255.761719"/>
      <use xlink:href="#ArialMT-6e" x="277.978516"/>
      <use xlink:href="#ArialMT-67" x="333.59375"/>
      <use xlink:href="#ArialMT-20" x="389.208984"/>
      <use xlink:href="#ArialMT-72" x="416.992188"/>
      <use xlink:href="#ArialMT-61" x="450.292969"/>
      <use xlink:href="#ArialMT-74" x="505.908203"/>
      <use xlink:href="#ArialMT-65" x="533.691406"/>
      <use xlink:href="#ArialMT-20" x="589.306641"/>
      <use xlink:href="#ArialMT-73" x="617.089844"/>
      <use xlink:href="#ArialMT-63" x="667.089844"/>
      <use xlink:href="#ArialMT-68" x="717.089844"/>
      <use xlink:href="#ArialMT-65" x="772.705078"/>
      <use xlink:href="#ArialMT-64" x="828.320312"/>
      <use xlink:href="#ArialMT-75" x="883.935547"/>
      <use xlink:href="#ArialMT-6c" x="939.550781"/>
      <use xlink:href="#ArialMT-65" x="961.767578"/>
     </g>
    </g>
    <g id="line2d_24">
     <path d="M 311.769027 60.294974  L 322.769027 60.294974  L 333.769027 60.294974  " style="fill: none; stroke: #1f77b4; stroke-width: 1.5; stroke-linecap: round"/>
    </g>
    <g id="text_16">
     <!-- adaptive -->
     <g style="fill: #262626" transform="translate(342.569027 64.144974)scale(0.11 -0.11)">
      <use xlink:href="#ArialMT-61"/>
      <use xlink:href="#ArialMT-64" x="55.615234"/>
      <use xlink:href="#ArialMT-61" x="111.230469"/>
      <use xlink:href="#ArialMT-70" x="166.845703"/>
      <use xlink:href="#ArialMT-74" x="222.460938"/>
      <use xlink:href="#ArialMT-69" x="250.244141"/>
      <use xlink:href="#ArialMT-76" x="272.460938"/>
      <use xlink:href="#ArialMT-65" x="322.460938"/>
     </g>
    </g>
    <g id="line2d_25">
     <path d="M 311.769027 75.854817  L 322.769027 75.854817  L 333.769027 75.854817  " style="fill: none; stroke: #ff7f0e; stroke-width: 1.5; stroke-linecap: round"/>
    </g>
    <g id="text_17">
     <!-- constant -->
     <g style="fill: #262626" transform="translate(342.569027 79.704817)scale(0.11 -0.11)">
      <use xlink:href="#ArialMT-63"/>
      <use xlink:href="#ArialMT-6f" x="50"/>
      <use xlink:href="#ArialMT-6e" x="105.615234"/>
      <use xlink:href="#ArialMT-73" x="161.230469"/>
      <use xlink:href="#ArialMT-74" x="211.230469"/>
      <use xlink:href="#ArialMT-61" x="239.013672"/>
      <use xlink:href="#ArialMT-6e" x="294.628906"/>
      <use xlink:href="#ArialMT-74" x="350.244141"/>
     </g>
    </g>
    <g id="line2d_26">
     <path d="M 311.769027 91.414661  L 322.769027 91.414661  L 333.769027 91.414661  " style="fill: none; stroke: #2ca02c; stroke-width: 1.5; stroke-linecap: round"/>
    </g>
    <g id="text_18">
     <!-- constant_search -->
     <g style="fill: #262626" transform="translate(342.569027 95.264661)scale(0.11 -0.11)">
      <defs>
       <path id="ArialMT-5f" d="M -97 -1272  L -97 -866  L 3631 -866  L 3631 -1272  L -97 -1272  z " transform="scale(0.015625)"/>
      </defs>
      <use xlink:href="#ArialMT-63"/>
      <use xlink:href="#ArialMT-6f" x="50"/>
      <use xlink:href="#ArialMT-6e" x="105.615234"/>
      <use xlink:href="#ArialMT-73" x="161.230469"/>
      <use xlink:href="#ArialMT-74" x="211.230469"/>
      <use xlink:href="#ArialMT-61" x="239.013672"/>
      <use xlink:href="#ArialMT-6e" x="294.628906"/>
      <use xlink:href="#ArialMT-74" x="350.244141"/>
      <use xlink:href="#ArialMT-5f" x="378.027344"/>
      <use xlink:href="#ArialMT-73" x="433.642578"/>
      <use xlink:href="#ArialMT-65" x="483.642578"/>
      <use xlink:href="#ArialMT-61" x="539.257812"/>
      <use xlink:href="#ArialMT-72" x="594.873047"/>
      <use xlink:href="#ArialMT-63" x="628.173828"/>
      <use xlink:href="#ArialMT-68" x="678.173828"/>
     </g>
    </g>
    <g id="line2d_27">
     <path d="M 311.769027 106.974505  L 322.769027 106.974505  L 333.769027 106.974505  " style="fill: none; stroke: #d62728; stroke-width: 1.5; stroke-linecap: round"/>
    </g>
    <g id="text_19">
     <!-- invscaling -->
     <g style="fill: #262626" transform="translate(342.569027 110.824505)scale(0.11 -0.11)">
      <use xlink:href="#ArialMT-69"/>
      <use xlink:href="#ArialMT-6e" x="22.216797"/>
      <use xlink:href="#ArialMT-76" x="77.832031"/>
      <use xlink:href="#ArialMT-73" x="127.832031"/>
      <use xlink:href="#ArialMT-63" x="177.832031"/>
      <use xlink:href="#ArialMT-61" x="227.832031"/>
      <use xlink:href="#ArialMT-6c" x="283.447266"/>
      <use xlink:href="#ArialMT-69" x="305.664062"/>
      <use xlink:href="#ArialMT-6e" x="327.880859"/>
      <use xlink:href="#ArialMT-67" x="383.496094"/>
     </g>
    </g>
    <g id="line2d_28">
     <path d="M 311.769027 122.663255  L 322.769027 122.663255  L 333.769027 122.663255  " style="fill: none; stroke: #9467bd; stroke-width: 1.5; stroke-linecap: round"/>
    </g>
    <g id="text_20">
     <!-- optimal -->
     <g style="fill: #262626" transform="translate(342.569027 126.513255)scale(0.11 -0.11)">
      <use xlink:href="#ArialMT-6f"/>
      <use xlink:href="#ArialMT-70" x="55.615234"/>
      <use xlink:href="#ArialMT-74" x="111.230469"/>
      <use xlink:href="#ArialMT-69" x="139.013672"/>
      <use xlink:href="#ArialMT-6d" x="161.230469"/>
      <use xlink:href="#ArialMT-61" x="244.53125"/>
      <use xlink:href="#ArialMT-6c" x="300.146484"/>
     </g>
    </g>
    <g id="line2d_29">
     <path d="M 311.769027 138.223099  L 322.769027 138.223099  L 333.769027 138.223099  " style="fill: none; stroke: #8c564b; stroke-width: 1.5; stroke-linecap: round"/>
    </g>
    <g id="text_21">
     <!-- liblinear -->
     <g style="fill: #262626" transform="translate(342.569027 142.073099)scale(0.11 -0.11)">
      <defs>
       <path id="ArialMT-62" d="M 941 0  L 419 0  L 419 4581  L 981 4581  L 981 2947  Q 1338 3394 1891 3394  Q 2197 3394 2470 3270  Q 2744 3147 2920 2923  Q 3097 2700 3197 2384  Q 3297 2069 3297 1709  Q 3297 856 2875 390  Q 2453 -75 1863 -75  Q 1275 -75 941 416  L 941 0  z M 934 1684  Q 934 1088 1097 822  Q 1363 388 1816 388  Q 2184 388 2453 708  Q 2722 1028 2722 1663  Q 2722 2313 2464 2622  Q 2206 2931 1841 2931  Q 1472 2931 1203 2611  Q 934 2291 934 1684  z " transform="scale(0.015625)"/>
      </defs>
      <use xlink:href="#ArialMT-6c"/>
      <use xlink:href="#ArialMT-69" x="22.216797"/>
      <use xlink:href="#ArialMT-62" x="44.433594"/>
      <use xlink:href="#ArialMT-6c" x="100.048828"/>
      <use xlink:href="#ArialMT-69" x="122.265625"/>
      <use xlink:href="#ArialMT-6e" x="144.482422"/>
      <use xlink:href="#ArialMT-65" x="200.097656"/>
      <use xlink:href="#ArialMT-61" x="255.712891"/>
      <use xlink:href="#ArialMT-72" x="311.328125"/>
     </g>
    </g>
   </g>
  </g>
 </g>
 <defs>
  <clipPath id="p7fbed2746b">
   <rect x="53.74125" y="29.75638" width="384.72098" height="260.441827"/>
  </clipPath>
 </defs>
</g>
  </g>
</svg>
